<svg width="1504" height="3686" viewBox="0 0 1504 3686" fill="none" xmlns="http://www.w3.org/2000/svg">
<path d="M590.96 806.117C590.96 898.366 516.177 973.148 423.928 973.148C331.68 973.148 256.897 898.366 256.897 806.117C256.897 713.868 331.68 639.086 423.928 639.086C516.177 639.086 590.96 713.868 590.96 806.117Z" stroke="#2E0909"/>
<path d="M256.372 4775.84C245.022 4775.84 233.72 4769.03 222.498 4755.53C211.281 4742.03 200.205 4721.92 189.307 4695.49C167.514 4642.65 146.482 4564.69 126.441 4464.25C86.3597 4263.38 50.2615 3972.69 19.9449 3613.47C-40.688 2895.03 -78.1909 1902.5 -78.1909 806.18C-78.1909 -290.141 -40.688 -1282.67 19.9449 -2001.11C50.2615 -2360.33 86.3597 -2651.02 126.441 -2851.89C146.482 -2952.33 167.514 -3030.29 189.307 -3083.13C200.205 -3109.56 211.281 -3129.67 222.498 -3143.17C233.72 -3156.67 245.022 -3163.48 256.372 -3163.48C267.722 -3163.48 279.023 -3156.67 290.245 -3143.17C301.463 -3129.67 312.539 -3109.56 323.436 -3083.13C345.229 -3030.29 366.262 -2952.33 386.303 -2851.89C426.384 -2651.02 462.482 -2360.33 492.798 -2001.11C553.431 -1282.67 590.934 -290.141 590.934 806.18C590.934 1902.5 553.431 2895.03 492.798 3613.47C462.482 3972.69 426.384 4263.38 386.303 4464.25C366.262 4564.69 345.229 4642.65 323.436 4695.49C312.539 4721.92 301.463 4742.03 290.245 4755.53C279.023 4769.03 267.722 4775.84 256.372 4775.84Z" stroke="#2E0909"/>
<path d="M-49.0513 4751.31C-60.3676 4750.44 -71.1104 4742.77 -81.2584 4728.44C-91.402 4714.12 -100.895 4693.21 -109.724 4666.03C-127.38 4611.67 -142.341 4532.32 -154.582 4430.63C-179.062 4227.27 -192.65 3934.66 -195.191 3574.17C-200.273 2853.19 -161.171 1860.73 -76.6777 767.669C7.81546 -325.391 121.701 -1312.08 237.523 -2023.71C295.435 -2379.52 353.829 -2666.56 409.272 -2863.75C436.994 -2962.35 463.972 -3038.46 489.773 -3089.46C502.674 -3114.97 515.268 -3134.16 527.492 -3146.76C539.721 -3159.36 551.514 -3165.28 562.831 -3164.4C574.147 -3163.53 584.89 -3155.86 595.038 -3141.54C605.181 -3127.21 614.674 -3106.31 623.503 -3079.12C641.159 -3024.76 656.12 -2945.41 668.361 -2843.72C692.841 -2640.36 706.429 -2347.75 708.97 -1987.26C714.053 -1266.29 674.95 -273.822 590.457 819.238C505.964 1912.3 392.079 2898.98 276.256 3610.61C218.345 3966.43 159.951 4253.47 104.508 4450.66C76.7852 4549.26 49.8071 4625.36 24.0064 4676.37C11.1049 4701.87 -1.48824 4721.07 -13.7125 4733.66C-25.942 4746.26 -37.735 4752.19 -49.0513 4751.31Z" stroke="#2E0909"/>
<path d="M-350.628 4703.41C-361.844 4701.66 -371.966 4693.2 -380.984 4678.13C-389.997 4663.07 -397.857 4641.5 -404.572 4613.72C-418.001 4558.16 -426.824 4477.89 -431.219 4375.57C-440.009 4170.92 -431.085 3878.14 -405.933 3518.52C-355.631 2799.28 -240.424 1812.75 -72.2356 729.407C95.9533 -353.936 285.278 -1328.96 455.41 -2029.59C540.477 -2379.91 620.743 -2661.62 691.166 -2853.97C726.379 -2950.15 759.122 -3023.96 788.764 -3072.83C803.586 -3097.27 817.616 -3115.44 830.771 -3127.06C843.932 -3138.68 856.145 -3143.68 867.361 -3141.94C878.577 -3140.2 888.699 -3131.73 897.717 -3116.67C906.73 -3101.61 914.59 -3080.03 921.305 -3052.25C934.734 -2996.69 943.557 -2916.43 947.952 -2814.1C956.742 -2609.46 947.818 -2316.67 922.666 -1957.05C872.364 -1237.81 757.157 -251.285 588.968 832.059C420.78 1915.4 231.455 2890.43 61.3225 3591.06C-23.7443 3941.38 -104.01 4223.09 -174.433 4415.43C-209.646 4511.61 -242.389 4585.42 -272.031 4634.29C-286.853 4658.73 -300.883 4676.91 -314.038 4688.53C-327.199 4700.15 -339.412 4705.15 -350.628 4703.41Z" stroke="#2E0909"/>
<path d="M-660.409 4628.71C-671.45 4626.08 -680.861 4616.83 -688.642 4601.09C-696.42 4585.36 -702.526 4563.22 -706.993 4534.99C-715.926 4478.54 -718.289 4397.82 -714.47 4295.47C-706.832 4090.78 -674.474 3799.66 -620.585 3443.21C-512.808 2730.31 -318.915 1756.19 -64.4524 689.806C190.01 -376.575 456.86 -1333.29 682.592 -2018.04C795.458 -2360.41 898.041 -2634.78 983.651 -2820.87C1026.46 -2913.91 1065.01 -2984.86 1098.47 -3031.2C1115.21 -3054.38 1130.65 -3071.37 1144.69 -3081.89C1158.74 -3092.42 1171.32 -3096.43 1182.36 -3093.79C1193.4 -3091.16 1202.81 -3081.91 1210.59 -3066.17C1218.37 -3050.44 1224.47 -3028.3 1228.94 -3000.07C1237.87 -2943.62 1240.24 -2862.9 1236.42 -2760.55C1228.78 -2555.86 1196.42 -2264.73 1142.53 -1908.29C1034.75 -1195.39 840.862 -221.267 586.399 845.114C331.936 1911.5 65.0864 2868.21 -160.645 3552.96C-273.511 3895.33 -376.094 4169.7 -461.704 4355.79C-504.511 4448.84 -543.064 4519.79 -576.527 4566.13C-593.259 4589.3 -608.701 4606.29 -622.745 4616.82C-636.795 4627.35 -649.369 4631.35 -660.409 4628.71Z" stroke="#2E0909"/>
<path d="M-960.788 4530.31C-971.584 4526.81 -980.23 4516.84 -986.736 4500.53C-993.239 4484.23 -997.565 4461.68 -999.774 4433.19C-1004.19 4376.2 -1000.13 4295.55 -988.188 4193.83C-964.303 3990.39 -908.906 3702.76 -826.854 3351.72C-662.75 2649.65 -392.037 1694.02 -53.6131 651.242C284.811 -391.538 626.866 -1324.01 906.314 -1988.65C1046.04 -2320.97 1170.11 -2586.32 1270.24 -2765.01C1320.3 -2854.36 1364.38 -2922.02 1401.42 -2965.55C1419.94 -2987.32 1436.68 -3003.03 1451.52 -3012.41C1466.36 -3021.79 1479.21 -3024.78 1490.01 -3021.28C1500.8 -3017.77 1509.45 -3007.8 1515.96 -2991.5C1522.46 -2975.19 1526.79 -2952.65 1528.99 -2924.15C1533.41 -2867.16 1529.35 -2786.52 1517.41 -2684.79C1493.52 -2481.36 1438.13 -2193.72 1356.07 -1842.69C1191.97 -1140.62 921.258 -184.985 582.833 857.794C244.409 1900.57 -97.6457 2833.05 -377.093 3497.69C-516.818 3830.01 -640.885 4095.36 -741.017 4274.05C-791.084 4363.4 -835.155 4431.06 -872.196 4474.59C-890.717 4496.36 -907.461 4512.07 -922.297 4521.45C-937.14 4530.83 -949.992 4533.82 -960.788 4530.31Z" stroke="#2E0909"/>
<path d="M-1249.82 4409.58C-1260.31 4405.24 -1268.15 4394.62 -1273.35 4377.85C-1278.54 4361.09 -1281.08 4338.27 -1281.04 4309.69C-1280.95 4252.53 -1270.55 4172.45 -1250.63 4071.99C-1210.8 3871.06 -1132.91 3588.69 -1023.46 3245.21C-804.563 2558.24 -459.412 1626.91 -39.8948 614.029C379.623 -398.851 794.071 -1301.48 1125.01 -1942.04C1290.48 -2262.32 1435.06 -2517.07 1548.96 -2687.32C1605.91 -2772.45 1655.17 -2836.43 1695.53 -2876.91C1715.7 -2897.15 1733.63 -2911.49 1749.16 -2919.67C1764.7 -2927.85 1777.75 -2929.82 1788.23 -2925.48C1798.72 -2921.14 1806.55 -2910.52 1811.75 -2893.75C1816.95 -2876.98 1819.49 -2854.16 1819.45 -2825.58C1819.36 -2768.42 1808.96 -2688.35 1789.04 -2587.88C1749.2 -2386.96 1671.32 -2104.58 1561.87 -1761.1C1342.97 -1074.14 997.82 -142.804 578.303 870.076C158.785 1882.96 -255.663 2785.59 -586.599 3426.15C-752.068 3746.43 -896.652 4001.18 -1010.55 4171.43C-1067.5 4256.55 -1116.76 4320.53 -1157.12 4361.01C-1177.3 4381.25 -1195.23 4395.6 -1210.75 4403.77C-1226.29 4411.96 -1239.34 4413.93 -1249.82 4409.58Z" stroke="#2E0909"/>
<path d="M-1526.01 4267.91C-1536.12 4262.76 -1543.1 4251.56 -1546.98 4234.44C-1550.85 4217.32 -1551.6 4194.37 -1549.33 4165.88C-1544.78 4108.9 -1528.16 4029.88 -1500.46 3931.28C-1445.06 3734.08 -1345.37 3458.64 -1209.44 3124.75C-937.587 2456.98 -520.789 1555.42 -23.4858 578.383C473.817 -398.658 957.46 -1266.19 1337.39 -1878.96C1527.35 -2185.34 1691.38 -2428.03 1818.22 -2588.87C1881.64 -2669.29 1935.75 -2729.23 1979.14 -2766.43C2000.84 -2785.04 2019.83 -2797.94 2035.95 -2804.88C2052.08 -2811.82 2065.24 -2812.77 2075.36 -2807.62C2085.47 -2802.47 2092.45 -2791.27 2096.33 -2774.15C2100.2 -2757.03 2100.95 -2734.08 2098.68 -2705.59C2094.13 -2648.61 2077.51 -2569.59 2049.81 -2470.99C1994.41 -2273.79 1894.72 -1998.36 1758.8 -1664.46C1486.94 -996.687 1070.14 -95.1356 572.838 881.906C75.5353 1858.95 -408.108 2726.47 -788.036 3339.24C-978.002 3645.63 -1142.03 3888.32 -1268.87 4049.16C-1332.29 4129.58 -1386.4 4189.52 -1429.79 4226.72C-1451.49 4245.33 -1470.48 4258.23 -1486.6 4265.17C-1502.73 4272.11 -1515.89 4273.06 -1526.01 4267.91Z" stroke="#2E0909"/>
<path d="M-1788.18 4106.64C-1797.86 4100.72 -1803.96 4089.02 -1806.5 4071.64C-1809.03 4054.28 -1808 4031.34 -1803.53 4003.11C-1794.59 3946.66 -1771.9 3869.16 -1736.65 3773C-1666.15 3580.68 -1545.44 3313.79 -1384.08 2991.42C-1061.35 2346.69 -576.011 1480.1 -4.57044 544.489C566.87 -391.126 1116.22 -1218.61 1542.44 -1800.14C1755.55 -2090.9 1937.87 -2320.16 2076.78 -2470.7C2146.24 -2545.97 2204.82 -2601.54 2250.96 -2635.27C2274.03 -2652.14 2293.97 -2663.53 2310.58 -2669.21C2327.19 -2674.88 2340.39 -2674.8 2350.08 -2668.89C2359.76 -2662.97 2365.86 -2651.27 2368.4 -2633.89C2370.93 -2616.53 2369.9 -2593.59 2365.43 -2565.36C2356.49 -2508.91 2333.8 -2431.41 2298.55 -2335.25C2228.05 -2142.93 2107.34 -1876.04 1945.98 -1553.67C1623.24 -908.937 1137.91 -42.3542 566.47 893.261C-4.97122 1828.88 -554.316 2656.36 -980.537 3237.89C-1193.65 3528.65 -1375.97 3757.91 -1514.88 3908.45C-1584.34 3983.72 -1642.92 4039.29 -1689.06 4073.02C-1712.14 4089.89 -1732.07 4101.28 -1748.68 4106.96C-1765.3 4112.63 -1778.49 4112.55 -1788.18 4106.64Z" stroke="#2E0909"/>
<path d="M-2046.62 3917.69C-2055.8 3911.02 -2060.93 3898.86 -2062.07 3881.34C-2063.2 3863.82 -2060.32 3841.04 -2053.59 3813.26C-2040.13 3757.71 -2011.28 3682.29 -1968.4 3589.28C-1882.65 3403.26 -1740.85 3146.95 -1554.05 2838.62C-1180.46 2221.97 -626.936 1397.27 17.9745 510.7C662.885 -375.872 1277.07 -1156.45 1748.72 -1701.77C1984.55 -1974.43 2184.74 -2188.27 2335.31 -2327.13C2410.6 -2396.57 2473.47 -2447.24 2522.18 -2477.15C2546.54 -2492.11 2567.32 -2501.86 2584.34 -2506.18C2601.36 -2510.49 2614.5 -2509.36 2623.68 -2502.68C2632.86 -2496 2637.99 -2483.85 2639.12 -2466.32C2640.25 -2448.81 2637.38 -2426.03 2630.65 -2398.25C2617.19 -2342.7 2588.34 -2267.28 2545.46 -2174.27C2459.71 -1988.25 2317.9 -1731.94 2131.11 -1423.61C1757.52 -806.957 1203.99 17.74 559.082 904.312C-85.8281 1790.88 -700.009 2571.46 -1171.66 3116.78C-1407.49 3389.44 -1607.68 3603.28 -1758.26 3742.15C-1833.55 3811.58 -1896.42 3862.25 -1945.12 3892.17C-1969.48 3907.12 -1990.27 3916.87 -2007.28 3921.19C-2024.3 3925.51 -2037.45 3924.37 -2046.62 3917.69Z" stroke="#2E0909"/>
<path d="M-2277.47 3719.83C-2286.11 3712.47 -2290.3 3699.96 -2290.09 3682.4C-2289.88 3664.85 -2285.27 3642.36 -2276.44 3615.17C-2258.77 3560.82 -2224.23 3487.82 -2174.37 3398.36C-2074.64 3219.44 -1913.66 2974.73 -1703.83 2681.58C-1284.19 2095.3 -669.222 1315.34 41.5899 480.677C752.402 -353.989 1424.47 -1085.32 1936.44 -1592.98C2192.43 -1846.81 2408.38 -2044.71 2569.13 -2171.66C2649.51 -2235.13 2716.07 -2280.85 2766.92 -2306.95C2792.35 -2320 2813.83 -2328.13 2831.12 -2331.14C2848.42 -2334.14 2861.44 -2332 2870.08 -2324.64C2878.72 -2317.28 2882.91 -2304.77 2882.7 -2287.21C2882.48 -2269.66 2877.88 -2247.17 2869.04 -2219.99C2851.37 -2165.63 2816.84 -2092.64 2766.98 -2003.17C2667.25 -1824.25 2506.26 -1579.54 2296.44 -1286.4C1876.79 -700.112 1261.83 79.846 551.017 914.511C-159.795 1749.18 -831.863 2480.5 -1343.83 2988.16C-1599.82 3242 -1815.77 3439.9 -1976.53 3566.85C-2056.91 3630.32 -2123.47 3676.04 -2174.32 3702.14C-2199.75 3715.19 -2221.22 3723.32 -2238.51 3726.32C-2255.81 3729.33 -2268.83 3727.19 -2277.47 3719.83Z" stroke="#2E0909"/>
<path d="M-2501.51 3494.63C-2509.54 3486.61 -2512.71 3473.8 -2511.1 3456.31C-2509.48 3438.84 -2503.09 3416.78 -2492.12 3390.39C-2470.16 3337.62 -2429.91 3267.62 -2373.06 3182.43C-2259.36 3012.05 -2079.34 2780.97 -1846.76 2505.53C-1381.62 1954.64 -706.321 1226.3 68.8954 451.083C844.111 -324.133 1572.45 -999.437 2123.34 -1464.58C2398.79 -1697.15 2629.86 -1877.17 2800.24 -1990.87C2885.43 -2047.72 2955.43 -2087.97 3008.21 -2109.93C3034.59 -2120.91 3056.65 -2127.3 3074.12 -2128.91C3091.61 -2130.52 3104.42 -2127.35 3112.44 -2119.32C3120.47 -2111.3 3123.64 -2098.49 3122.03 -2081C3120.42 -2063.53 3114.03 -2041.47 3103.05 -2015.08C3081.09 -1962.31 3040.84 -1892.31 2983.99 -1807.12C2870.29 -1636.74 2690.27 -1405.67 2457.7 -1130.22C1992.56 -579.331 1317.25 149.01 542.038 924.226C-233.178 1699.44 -961.519 2374.75 -1512.41 2839.89C-1787.85 3072.46 -2018.92 3252.48 -2189.31 3366.18C-2274.5 3423.03 -2344.5 3463.28 -2397.27 3485.24C-2423.66 3496.21 -2445.71 3502.6 -2463.19 3504.22C-2480.68 3505.83 -2493.48 3502.66 -2501.51 3494.63Z" stroke="#2E0909"/>
<path d="M-2698.23 3263.92C-2705.62 3255.3 -2707.81 3242.29 -2704.87 3224.98C-2701.93 3207.68 -2693.88 3186.18 -2680.92 3160.7C-2655 3109.75 -2609.53 3043.03 -2546.35 2962.42C-2419.99 2801.2 -2222.87 2584.53 -1969.97 2327.62C-1464.18 1813.81 -735.298 1139.08 96.7761 425.241C928.85 -288.603 1706.57 -906.4 2291.32 -1328.18C2583.7 -1539.07 2827.82 -1700.94 3006.38 -1801.32C3095.66 -1851.51 3168.52 -1886.31 3222.82 -1904.17C3249.97 -1913.11 3272.45 -1917.8 3289.99 -1918.07C3307.55 -1918.35 3320.08 -1914.21 3327.47 -1905.59C3334.86 -1896.98 3337.05 -1883.96 3334.11 -1866.65C3331.17 -1849.35 3323.11 -1827.85 3310.15 -1802.37C3284.24 -1751.43 3238.76 -1684.7 3175.58 -1604.09C3049.22 -1442.88 2852.11 -1226.21 2599.21 -969.296C2093.41 -455.482 1364.53 219.242 532.461 933.086C-299.612 1646.93 -1077.33 2264.73 -1662.08 2686.5C-1954.46 2897.39 -2198.59 3059.27 -2377.14 3159.64C-2466.42 3209.83 -2539.29 3244.63 -2593.58 3262.5C-2620.73 3271.43 -2643.21 3276.12 -2660.76 3276.4C-2678.31 3276.67 -2690.84 3272.53 -2698.23 3263.92Z" stroke="#2E0909"/>
<path d="M-2877.23 3018.22C-2883.94 3009.07 -2885.13 2995.93 -2880.87 2978.89C-2876.61 2961.86 -2866.94 2941.04 -2852.07 2916.63C-2822.34 2867.81 -2771.9 2804.76 -2702.74 2729.22C-2564.42 2578.13 -2351.32 2377.17 -2079.52 2140.34C-1535.92 1666.7 -757.597 1049.67 126.614 401.529C1010.83 -246.615 1833.5 -803.148 2448.78 -1178.99C2756.43 -1366.91 3012.22 -1509.65 3197.92 -1596.08C3290.78 -1639.29 3366.09 -1668.42 3421.59 -1682.09C3449.34 -1688.92 3472.11 -1691.87 3489.63 -1690.81C3507.16 -1689.74 3519.33 -1684.65 3526.04 -1675.5C3532.75 -1666.34 3533.94 -1653.2 3529.68 -1636.17C3525.43 -1619.14 3515.76 -1598.32 3500.89 -1573.91C3471.15 -1525.09 3420.71 -1462.04 3351.55 -1386.49C3213.24 -1235.41 3000.13 -1034.44 2728.33 -797.619C2184.74 -323.976 1406.41 293.051 522.2 941.195C-362.011 1589.34 -1184.68 2145.87 -1799.97 2521.71C-2107.61 2709.63 -2363.4 2852.37 -2549.11 2938.8C-2641.96 2982.02 -2717.27 3011.15 -2772.78 3024.81C-2800.53 3031.64 -2823.3 3034.6 -2840.82 3033.53C-2858.34 3032.46 -2870.52 3027.38 -2877.23 3018.22Z" stroke="#2E0909"/>
<path d="M-3044.33 2745.23C-3050.28 2735.56 -3050.41 2722.37 -3044.79 2705.73C-3039.18 2689.1 -3027.87 2669.12 -3011.08 2645.99C-2977.52 2599.72 -2922.16 2540.94 -2847.15 2471.2C-2697.12 2331.74 -2468.53 2148.58 -2178.55 1934.4C-1598.6 1506.04 -773.138 953.661 160.371 378.786C1093.88 -196.09 1958.67 -684.605 2602.21 -1009.7C2923.98 -1172.25 3190.43 -1293.94 3382.49 -1365.15C3478.52 -1400.75 3555.94 -1423.72 3612.36 -1432.87C3640.57 -1437.45 3663.5 -1438.56 3680.88 -1436.09C3698.26 -1433.62 3709.99 -1427.57 3715.94 -1417.9C3721.89 -1408.24 3722.02 -1395.04 3716.4 -1378.4C3710.79 -1361.77 3699.47 -1341.8 3682.69 -1318.66C3649.12 -1272.4 3593.77 -1213.61 3518.75 -1143.88C3368.73 -1004.42 3140.14 -821.252 2850.16 -607.073C2270.21 -178.717 1444.75 373.665 511.238 948.54C-422.27 1523.42 -1287.06 2011.93 -1930.6 2337.03C-2252.38 2499.58 -2518.82 2621.27 -2710.88 2692.47C-2806.91 2728.08 -2884.33 2751.05 -2940.75 2760.2C-2968.96 2764.77 -2991.89 2765.89 -3009.27 2763.42C-3026.65 2760.94 -3038.38 2754.89 -3044.33 2745.23Z" stroke="#2E0909"/>
<path d="M-3184.12 2471.13C-3189.31 2461.04 -3188.41 2447.87 -3181.53 2431.72C-3174.65 2415.57 -3161.82 2396.53 -3143.29 2374.76C-3106.25 2331.24 -3046.51 2276.91 -2966.32 2213.19C-2805.96 2085.75 -2563.88 1920.83 -2258.2 1729.73C-1646.84 1347.53 -781.109 860.678 194.084 359.76C1169.28 -141.159 2069.28 -561.293 2736.04 -835.621C3069.43 -972.786 3344.49 -1073.49 3541.49 -1129.62C3639.99 -1157.69 3718.94 -1174.6 3775.9 -1179.36C3804.39 -1181.74 3827.34 -1181.07 3844.47 -1177.26C3861.61 -1173.45 3872.83 -1166.51 3878.02 -1156.42C3883.2 -1146.32 3882.31 -1133.15 3875.42 -1117C3868.54 -1100.86 3855.71 -1081.81 3837.19 -1060.05C3800.14 -1016.52 3740.41 -962.19 3660.22 -898.471C3499.85 -771.037 3257.78 -606.11 2952.09 -415.011C2340.74 -32.8158 1475.01 454.037 499.812 954.956C-475.38 1455.87 -1375.38 1876.01 -2042.15 2150.34C-2375.53 2287.5 -2650.6 2388.21 -2847.59 2444.34C-2946.09 2472.4 -3025.05 2489.32 -3082.01 2494.07C-3110.49 2496.45 -3133.44 2495.79 -3150.57 2491.98C-3167.71 2488.17 -3178.94 2481.23 -3184.12 2471.13Z" stroke="#2E0909"/>
<path d="M-3303.1 2184.56C-3307.49 2174.09 -3305.57 2161.04 -3297.44 2145.47C-3289.32 2129.91 -3275.05 2111.93 -3254.88 2091.68C-3214.55 2051.17 -3150.76 2001.67 -3065.84 1944.4C-2896.02 1829.87 -2641.81 1684.33 -2322.15 1517.67C-1682.84 1184.34 -781.758 766.522 229.547 343.222C1240.85 -80.0771 2170.89 -428.706 2857.03 -650.171C3200.1 -760.905 3482.18 -839.843 3682.96 -880.429C3783.35 -900.723 3863.38 -911.423 3920.54 -911.723C3949.12 -911.872 3971.95 -909.421 3988.73 -904.285C4005.52 -899.147 4016.17 -891.353 4020.55 -880.883C4024.94 -870.413 4023.01 -857.357 4014.89 -841.791C4006.77 -826.232 3992.49 -808.249 3972.33 -787.995C3932 -747.489 3868.2 -697.987 3783.29 -640.718C3613.47 -526.187 3359.26 -380.651 3039.6 -213.986C2400.29 119.341 1499.21 537.159 487.902 960.459C-523.402 1383.76 -1453.44 1732.39 -2139.58 1953.85C-2482.65 2064.59 -2764.73 2143.52 -2965.51 2184.11C-3065.9 2204.4 -3145.93 2215.1 -3203.09 2215.4C-3231.67 2215.55 -3254.5 2213.1 -3271.28 2207.97C-3288.07 2202.83 -3298.72 2195.03 -3303.1 2184.56Z" stroke="#2E0909"/>
<path d="M-3400.04 1886.81C-3403.58 1876.02 -3400.64 1863.16 -3391.31 1848.28C-3381.99 1833.41 -3366.35 1816.61 -3344.65 1798C-3301.26 1760.8 -3233.76 1716.47 -3144.6 1666.07C-2966.29 1565.27 -2701.41 1440.2 -2369.62 1299.22C-1706.04 1017.27 -774.862 671.699 266.634 329.344C1308.13 -13.0105 2262.73 -287.325 2964.18 -454.076C3314.9 -537.452 3602.33 -593.934 3805.67 -618.585C3907.35 -630.912 3987.98 -635.276 4044.98 -631.074C4073.49 -628.973 4096.05 -624.731 4112.38 -618.29C4128.71 -611.846 4138.71 -603.237 4142.26 -592.455C4145.8 -581.672 4142.86 -568.808 4133.53 -553.931C4124.21 -539.059 4108.57 -522.256 4086.87 -503.653C4043.47 -466.448 3975.98 -422.123 3886.82 -371.718C3708.51 -270.914 3443.63 -145.847 3111.84 -4.86936C2448.26 277.083 1517.08 622.652 475.585 965.007C-565.91 1307.36 -1520.51 1581.68 -2221.96 1748.43C-2572.69 1831.8 -2860.11 1888.28 -3063.45 1912.94C-3165.13 1925.26 -3245.76 1929.63 -3302.76 1925.43C-3331.27 1923.32 -3353.83 1919.08 -3370.16 1912.64C-3386.49 1906.2 -3396.49 1897.59 -3400.04 1886.81Z" stroke="#2E0909"/>
<path d="M-3473.67 1579.51C-3476.34 1568.48 -3472.39 1555.89 -3461.91 1541.8C-3451.44 1527.71 -3434.5 1512.21 -3411.4 1495.39C-3365.19 1461.75 -3294.38 1422.92 -3201.5 1379.76C-3015.74 1293.45 -2741.76 1189.82 -2399.82 1075.65C-1715.94 847.317 -760.243 576.829 305.162 318.311C1370.57 59.7924 2343.95 -137.805 3056.43 -248.294C3412.67 -303.539 3703.67 -337.004 3908.33 -345.421C4010.66 -349.629 4091.39 -347.573 4147.88 -338.855C4176.12 -334.495 4198.28 -328.474 4214.04 -320.756C4229.81 -313.035 4239.1 -303.659 4241.77 -292.629C4244.45 -281.599 4240.49 -269.009 4230.02 -254.919C4219.55 -240.835 4202.61 -225.329 4179.5 -208.508C4133.29 -174.87 4062.49 -136.047 3969.61 -92.8864C3783.85 -6.5688 3509.87 97.0568 3167.93 211.225C2484.04 439.56 1528.35 710.048 462.945 968.566C-602.46 1227.08 -1575.84 1424.68 -2288.32 1535.17C-2644.56 1590.42 -2935.56 1623.88 -3140.22 1632.3C-3242.56 1636.51 -3323.28 1634.45 -3379.77 1625.73C-3408.02 1621.37 -3430.17 1615.35 -3445.94 1607.63C-3461.7 1599.91 -3470.99 1590.54 -3473.67 1579.51Z" stroke="#2E0909"/>
<path d="M-3522.83 1264.74C-3524.62 1253.53 -3519.67 1241.3 -3508.1 1228.09C-3496.53 1214.89 -3478.41 1200.79 -3454.03 1185.88C-3405.27 1156.05 -3331.58 1123.02 -3235.54 1087.44C-3043.47 1016.28 -2762.07 934.935 -2412.08 848.526C-1712.1 675.709 -737.809 482.649 344.882 310.309C1427.57 137.968 2413.65 18.9814 3132.69 -34.0773C3492.22 -60.6069 3784.96 -70.6531 3989.64 -62.6476C4091.98 -58.6447 4172.28 -50.1293 4227.89 -36.9137C4255.7 -30.3053 4277.3 -22.5286 4292.39 -13.5726C4307.49 -4.61284 4316 5.47714 4317.78 16.6861C4319.57 27.895 4314.62 40.1271 4303.04 53.3324C4291.48 66.5322 4273.36 80.6321 4248.97 95.5478C4200.22 125.376 4126.53 158.403 4030.49 193.984C3838.41 265.143 3557.02 346.488 3207.03 432.897C2507.05 605.714 1532.76 798.774 450.067 971.114C-632.623 1143.45 -1618.71 1262.44 -2337.74 1315.5C-2697.27 1342.03 -2990.01 1352.08 -3194.69 1344.07C-3297.03 1340.07 -3377.33 1331.55 -3432.94 1318.34C-3460.75 1311.73 -3482.35 1303.95 -3497.45 1295C-3512.55 1286.04 -3521.05 1275.95 -3522.83 1264.74Z" stroke="#2E0909"/>
<path d="M-3546.68 960.36C-3547.6 949.047 -3541.72 937.231 -3529.17 924.954C-3516.62 912.681 -3497.48 900.014 -3472.02 887.014C-3421.12 861.017 -3345.11 833.746 -3246.62 805.644C-3049.65 749.442 -2762.84 689.943 -2407.25 630.661C-1696.07 512.098 -709.828 394.413 382.899 305.71C1475.63 217.007 2467.93 174.082 3188.92 176.388C3549.42 177.54 3842.07 190.001 4045.53 213.698C4147.27 225.546 4226.67 240.202 4281.1 257.648C4308.32 266.372 4329.26 275.785 4343.63 285.873C4357.99 295.966 4365.7 306.679 4366.62 317.992C4367.54 329.305 4361.66 341.12 4349.11 353.398C4336.56 365.671 4317.41 378.338 4291.96 391.338C4241.05 417.335 4165.05 444.606 4066.56 472.708C3869.59 528.91 3582.77 588.409 3227.18 647.691C2516 766.254 1529.76 883.939 437.037 972.642C-655.689 1061.34 -1648 1104.27 -2368.99 1101.96C-2729.48 1100.81 -3022.14 1088.35 -3225.6 1064.65C-3327.33 1052.81 -3406.74 1038.15 -3461.17 1020.7C-3488.39 1011.98 -3509.33 1002.57 -3523.69 992.479C-3538.06 982.386 -3545.76 971.673 -3546.68 960.36Z" stroke="#2E0909"/>
<path d="M-3545.07 623.263C-3545.03 611.913 -3538.17 600.638 -3524.63 589.468C-3511.08 578.303 -3490.93 567.305 -3464.46 556.509C-3411.54 534.921 -3333.5 514.189 -3232.98 494.536C-3031.95 455.231 -2741.13 420.255 -2381.79 391.325C-1663.12 333.466 -670.46 299.795 425.853 304.027C1522.17 308.259 2514.54 349.593 3232.74 412.999C3591.84 444.702 3882.39 481.922 4083.11 522.778C4183.47 543.207 4261.35 564.54 4314.1 586.537C4340.49 597.536 4360.55 608.69 4374.01 619.959C4387.47 631.233 4394.24 642.561 4394.2 653.911C4394.15 665.261 4387.3 676.536 4373.75 687.706C4360.21 698.871 4340.05 709.869 4313.59 720.665C4260.66 742.254 4182.62 762.985 4082.1 782.638C3881.08 821.943 3590.25 856.919 3230.92 885.849C2512.25 943.708 1519.58 977.379 423.27 973.147C-673.043 968.915 -1665.42 927.581 -2383.62 864.175C-2742.72 832.472 -3033.27 795.252 -3233.98 754.396C-3334.35 733.968 -3412.23 712.634 -3464.98 690.638C-3491.36 679.638 -3511.43 668.485 -3524.89 657.215C-3538.35 645.941 -3545.12 634.613 -3545.07 623.263Z" stroke="#2E0909"/>
<path d="M-3519.42 317.939C-3518.5 306.626 -3510.79 295.913 -3496.42 285.82C-3482.06 275.731 -3461.12 266.319 -3433.9 257.595C-3379.47 240.149 -3300.06 225.493 -3198.33 213.644C-2994.87 189.948 -2702.22 177.487 -2341.72 176.334C-1620.73 174.029 -628.424 216.954 464.303 305.657C1557.03 394.36 2543.27 512.045 3254.45 630.608C3610.04 689.89 3896.85 749.389 4093.82 805.591C4192.31 833.693 4268.32 860.964 4319.22 886.961C4344.68 899.961 4363.83 912.628 4376.37 924.9C4388.92 937.178 4394.8 948.994 4393.88 960.307C4392.96 971.62 4385.26 982.333 4370.89 992.426C4356.53 1002.51 4335.59 1011.93 4308.37 1020.65C4253.94 1038.1 4174.53 1052.75 4072.8 1064.6C3869.34 1088.3 3576.69 1100.76 3216.19 1101.91C2495.2 1104.22 1502.89 1061.29 410.164 972.588C-682.563 883.885 -1668.8 766.2 -2379.98 647.638C-2735.57 588.356 -3022.38 528.857 -3219.36 472.655C-3317.85 444.552 -3393.85 417.281 -3444.76 391.284C-3470.21 378.285 -3489.36 365.618 -3501.91 353.345C-3514.46 341.067 -3520.33 329.251 -3519.42 317.939Z" stroke="#2E0909"/>
<path d="M-3470.57 16.5827C-3468.79 5.37377 -3460.28 -4.71624 -3445.18 -13.676C-3430.09 -22.6319 -3408.49 -30.4087 -3380.68 -37.0171C-3325.07 -50.2327 -3244.77 -58.7481 -3142.43 -62.751C-2937.75 -70.7564 -2645 -60.7103 -2285.48 -34.1807C-1566.44 18.878 -580.361 137.865 502.33 310.205C1585.02 482.545 2559.31 675.606 3259.29 848.422C3609.28 934.831 3890.68 1016.18 4082.75 1087.34C4178.79 1122.92 4252.48 1155.94 4301.24 1185.77C4325.62 1200.69 4343.74 1214.79 4355.31 1227.99C4366.88 1241.19 4371.83 1253.42 4370.05 1264.63C4368.26 1275.84 4359.76 1285.93 4344.66 1294.89C4329.56 1303.85 4307.96 1311.62 4280.15 1318.23C4224.54 1331.45 4144.24 1339.96 4041.9 1343.97C3837.23 1351.97 3544.48 1341.93 3184.96 1315.4C2465.92 1262.34 1479.83 1143.35 397.144 971.011C-685.546 798.671 -1659.84 605.611 -2359.81 432.794C-2709.8 346.385 -2991.2 265.04 -3183.28 193.88C-3279.32 158.299 -3353.01 125.273 -3401.76 95.4444C-3426.14 80.5287 -3444.27 66.4288 -3455.83 53.229C-3467.4 40.0237 -3472.36 27.7917 -3470.57 16.5827Z" stroke="#2E0909"/>
<path d="M-3394.54 -292.78C-3391.87 -303.81 -3382.58 -313.186 -3366.81 -320.908C-3351.05 -328.626 -3328.89 -334.647 -3300.64 -339.006C-3244.15 -347.725 -3163.43 -349.78 -3061.1 -345.572C-2856.44 -337.155 -2565.44 -303.69 -2209.19 -248.445C-1496.72 -137.956 -523.335 59.6411 542.071 318.159C1607.48 576.677 2563.17 847.166 3247.05 1075.5C3589 1189.67 3862.97 1293.29 4048.73 1379.61C4141.61 1422.77 4212.42 1461.6 4258.63 1495.23C4281.74 1512.05 4298.67 1527.56 4309.14 1541.65C4319.62 1555.74 4323.58 1568.32 4320.9 1579.35C4318.22 1590.38 4308.94 1599.76 4293.17 1607.48C4277.41 1615.2 4255.25 1621.22 4227 1625.58C4170.51 1634.3 4089.79 1636.35 3987.45 1632.15C3782.79 1623.73 3491.79 1590.26 3135.55 1535.02C2423.07 1424.53 1449.69 1226.93 384.287 968.415C-681.118 709.897 -1636.81 439.409 -2320.69 211.074C-2662.64 96.9055 -2936.62 -6.72008 -3122.37 -93.0378C-3215.26 -136.198 -3286.06 -175.021 -3332.27 -208.66C-3355.38 -225.481 -3372.31 -240.987 -3382.79 -255.071C-3393.26 -269.161 -3397.22 -281.75 -3394.54 -292.78Z" stroke="#2E0909"/>
<path d="M-3295 -592.65C-3291.45 -603.432 -3281.45 -612.041 -3265.12 -618.485C-3248.79 -624.926 -3226.23 -629.168 -3197.72 -631.269C-3140.72 -635.472 -3060.09 -631.107 -2958.41 -618.78C-2755.07 -594.129 -2467.64 -537.647 -2116.92 -454.271C-1415.47 -287.52 -460.869 -13.2057 580.627 329.149C1622.12 671.504 2553.3 1017.07 3216.88 1299.03C3548.67 1440 3813.55 1565.07 3991.86 1665.87C4081.02 1716.28 4148.52 1760.6 4191.91 1797.81C4213.61 1816.41 4229.25 1833.22 4238.57 1848.09C4247.9 1862.96 4250.84 1875.83 4247.3 1886.61C4243.75 1897.39 4233.75 1906 4217.42 1912.45C4201.09 1918.89 4178.53 1923.13 4150.02 1925.23C4093.02 1929.43 4012.39 1925.07 3910.71 1912.74C3707.37 1888.09 3419.95 1831.61 3069.22 1748.23C2367.77 1581.48 1413.17 1307.17 371.676 964.812C-669.82 622.457 -1601 276.888 -2264.58 -5.06456C-2596.37 -146.042 -2861.25 -271.109 -3039.56 -371.914C-3128.72 -422.318 -3196.21 -466.644 -3239.61 -503.848C-3261.3 -522.452 -3276.95 -539.254 -3286.27 -554.126C-3295.6 -569.004 -3298.54 -581.867 -3295 -592.65Z" stroke="#2E0909"/>
<path d="M-3173.26 -881.118C-3168.88 -891.588 -3158.23 -899.383 -3141.44 -904.521C-3124.66 -909.656 -3101.83 -912.108 -3073.25 -911.958C-3016.09 -911.659 -2936.05 -900.959 -2835.66 -880.665C-2634.89 -840.078 -2352.81 -761.14 -2009.73 -650.407C-1323.6 -428.942 -393.557 -80.3128 617.748 342.987C1629.05 766.286 2530.13 1184.1 3169.45 1517.43C3489.11 1684.1 3743.32 1829.63 3913.14 1944.16C3998.05 2001.43 4061.84 2050.94 4102.17 2091.44C4122.34 2111.7 4136.62 2129.68 4144.74 2145.24C4152.86 2160.8 4154.78 2173.86 4150.4 2184.33C4146.02 2194.8 4135.37 2202.59 4118.58 2207.73C4101.8 2212.87 4078.97 2215.32 4050.39 2215.17C3993.23 2214.87 3913.19 2204.17 3812.8 2183.87C3612.03 2143.29 3329.95 2064.35 2986.87 1953.62C2300.74 1732.15 1370.7 1383.52 359.392 960.223C-651.912 536.924 -1552.99 119.105 -2192.31 -214.222C-2511.97 -380.887 -2766.18 -526.422 -2936 -640.954C-3020.91 -698.222 -3084.71 -747.725 -3125.03 -788.231C-3145.2 -808.485 -3159.48 -826.468 -3167.6 -842.027C-3175.72 -857.593 -3177.64 -870.648 -3173.26 -881.118Z" stroke="#2E0909"/>
<path d="M-3030.68 -1156.69C-3025.5 -1166.78 -3014.27 -1173.72 -2997.13 -1177.53C-2980 -1181.34 -2957.05 -1182.01 -2928.57 -1179.63C-2871.61 -1174.87 -2792.65 -1157.96 -2694.15 -1129.89C-2497.16 -1073.76 -2222.09 -973.055 -1888.71 -835.891C-1221.94 -561.563 -321.941 -141.428 653.251 359.49C1628.44 860.409 2494.17 1347.26 3105.53 1729.46C3411.21 1920.56 3653.29 2085.48 3813.66 2212.92C3893.84 2276.64 3953.58 2330.97 3990.63 2374.49C4009.15 2396.26 4021.98 2415.3 4028.86 2431.45C4035.75 2447.6 4036.64 2460.77 4031.46 2470.86C4026.27 2480.96 4015.05 2487.9 3997.91 2491.71C3980.78 2495.52 3957.82 2496.18 3929.34 2493.8C3872.38 2489.05 3793.42 2472.13 3694.92 2444.07C3497.93 2387.94 3222.87 2287.23 2889.48 2150.07C2222.72 1875.74 1322.71 1455.6 347.522 954.686C-627.67 453.768 -1493.4 -33.0856 -2104.76 -415.281C-2410.44 -606.38 -2652.52 -771.307 -2812.88 -898.74C-2893.07 -962.459 -2952.81 -1016.79 -2989.85 -1060.32C-3008.38 -1082.08 -3021.21 -1101.13 -3028.09 -1117.27C-3034.97 -1133.42 -3035.87 -1146.59 -3030.68 -1156.69Z" stroke="#2E0909"/>
<path d="M-2868.56 -1418.2C-2862.61 -1427.86 -2850.88 -1433.91 -2833.5 -1436.39C-2816.12 -1438.86 -2793.19 -1437.74 -2764.98 -1433.17C-2708.56 -1424.02 -2631.14 -1401.05 -2535.11 -1365.44C-2343.05 -1294.24 -2076.61 -1172.55 -1754.83 -1010C-1111.29 -684.901 -246.5 -196.385 687.008 378.49C1620.52 953.366 2445.98 1505.75 3025.93 1934.1C3315.91 2148.28 3544.5 2331.45 3694.52 2470.91C3769.54 2540.64 3824.89 2599.43 3858.46 2645.69C3875.24 2668.83 3886.56 2688.8 3892.17 2705.43C3897.79 2722.07 3897.66 2735.27 3891.71 2744.93C3885.76 2754.6 3874.03 2760.65 3856.65 2763.12C3839.27 2765.59 3816.34 2764.48 3788.13 2759.9C3731.71 2750.75 3654.29 2727.78 3558.26 2692.18C3366.2 2620.97 3099.76 2499.28 2777.98 2336.73C2134.44 2011.64 1269.65 1523.12 336.141 948.244C-597.368 373.369 -1422.83 -179.013 -2002.78 -607.369C-2292.76 -821.548 -2521.35 -1004.71 -2671.37 -1144.17C-2746.39 -1213.9 -2801.74 -1272.69 -2835.31 -1318.96C-2852.1 -1342.09 -2863.41 -1362.07 -2869.02 -1378.7C-2874.64 -1395.34 -2874.51 -1408.53 -2868.56 -1418.2Z" stroke="#2E0909"/>
<path d="M-2678.62 -1675.81C-2671.91 -1684.97 -2659.73 -1690.06 -2642.2 -1691.12C-2624.69 -1692.19 -2601.92 -1689.23 -2574.16 -1682.4C-2518.66 -1668.74 -2443.35 -1639.61 -2350.49 -1596.39C-2164.79 -1509.96 -1909 -1367.22 -1601.36 -1179.3C-986.068 -803.465 -163.399 -246.931 720.813 401.212C1605.02 1049.36 2383.35 1666.38 2926.95 2140.03C3198.74 2376.85 3411.85 2577.82 3550.16 2728.9C3619.32 2804.44 3669.77 2867.5 3699.5 2916.31C3714.37 2940.72 3724.04 2961.55 3728.3 2978.57C3732.55 2995.61 3731.37 3008.75 3724.66 3017.91C3717.95 3027.06 3705.77 3032.15 3688.24 3033.21C3670.73 3034.28 3647.96 3031.32 3620.2 3024.49C3564.7 3010.83 3489.39 2981.7 3396.53 2938.49C3210.83 2852.06 2955.04 2709.32 2647.39 2521.39C2032.11 2145.56 1209.44 1589.02 325.227 940.879C-558.984 292.735 -1337.31 -324.292 -1880.91 -797.935C-2152.7 -1034.76 -2365.81 -1235.73 -2504.12 -1386.81C-2573.28 -1462.35 -2623.73 -1525.41 -2653.46 -1574.22C-2668.33 -1598.63 -2678 -1619.46 -2682.26 -1636.48C-2686.51 -1653.52 -2685.33 -1666.66 -2678.62 -1675.81Z" stroke="#2E0909"/>
<path d="M-2479.99 -1905.92C-2472.6 -1914.53 -2460.07 -1918.67 -2442.52 -1918.4C-2424.97 -1918.12 -2402.49 -1913.43 -2375.34 -1904.5C-2321.05 -1886.63 -2248.18 -1851.83 -2158.9 -1801.65C-1980.35 -1701.27 -1736.22 -1539.39 -1443.84 -1328.5C-859.089 -906.727 -81.3729 -288.93 750.701 424.914C1582.77 1138.76 2311.65 1813.48 2817.45 2327.3C3070.35 2584.2 3267.46 2800.88 3393.82 2962.09C3457 3042.7 3502.48 3109.43 3528.39 3160.37C3541.35 3185.85 3549.41 3207.35 3552.35 3224.65C3555.29 3241.96 3553.1 3254.98 3545.71 3263.59C3538.32 3272.2 3525.79 3276.35 3508.23 3276.07C3490.69 3275.8 3468.21 3271.11 3441.06 3262.17C3386.76 3244.31 3313.9 3209.51 3224.62 3159.32C3046.06 3058.94 2801.94 2897.07 2509.56 2686.18C1924.81 2264.4 1147.09 1646.6 315.016 932.759C-517.058 218.915 -1245.94 -455.809 -1751.73 -969.623C-2004.63 -1226.53 -2201.75 -1443.2 -2328.11 -1604.42C-2391.29 -1685.03 -2436.76 -1751.75 -2462.68 -1802.7C-2475.64 -1828.18 -2483.69 -1849.68 -2486.63 -1866.98C-2489.57 -1884.29 -2487.38 -1897.3 -2479.99 -1905.92Z" stroke="#2E0909"/>
<path d="M-2253.97 -2129.1C-2245.91 -2137.09 -2233.09 -2140.22 -2215.61 -2138.55C-2198.14 -2136.87 -2176.11 -2130.4 -2149.76 -2119.33C-2097.07 -2097.18 -2027.22 -2056.67 -1942.23 -1999.51C-1772.26 -1885.19 -1541.85 -1704.34 -1267.25 -1470.76C-718.053 -1003.63 7.82913 -325.68 780.224 452.347C1552.62 1230.37 2225.27 1961.16 2688.41 2513.74C2919.98 2790.03 3099.16 3021.75 3212.23 3192.54C3268.78 3277.94 3308.78 3348.09 3330.54 3400.94C3341.42 3427.37 3347.73 3449.45 3349.28 3466.93C3350.83 3484.42 3347.61 3497.22 3339.55 3505.21C3331.5 3513.21 3318.68 3516.34 3301.2 3514.66C3283.73 3512.98 3261.7 3506.51 3235.35 3495.44C3182.66 3473.29 3112.8 3432.79 3027.82 3375.63C2857.85 3261.31 2627.44 3080.45 2352.84 2846.88C1803.64 2379.74 1077.76 1701.8 305.365 923.768C-467.03 145.74 -1139.68 -585.049 -1602.82 -1137.62C-1834.39 -1413.91 -2013.57 -1645.64 -2126.65 -1816.43C-2183.19 -1901.83 -2223.19 -1971.97 -2244.95 -2024.83C-2255.83 -2051.26 -2262.14 -2073.33 -2263.69 -2090.82C-2265.24 -2108.3 -2262.02 -2121.1 -2253.97 -2129.1Z" stroke="#2E0909"/>
<path d="M-2022.5 -2324.97C-2013.86 -2332.33 -2000.84 -2334.47 -1983.54 -2331.46C-1966.25 -2328.46 -1944.77 -2320.33 -1919.35 -2307.28C-1868.49 -2281.18 -1801.93 -2235.46 -1721.55 -2171.98C-1560.8 -2045.04 -1344.85 -1847.14 -1088.86 -1593.3C-576.89 -1085.64 95.178 -354.316 805.99 480.35C1516.8 1315.01 2131.77 2094.97 2551.41 2681.26C2761.24 2974.4 2922.22 3219.12 3021.95 3398.03C3071.81 3487.5 3106.35 3560.49 3124.02 3614.85C3132.85 3642.03 3137.46 3664.52 3137.67 3682.07C3137.88 3699.63 3133.69 3712.14 3125.05 3719.5C3116.41 3726.86 3103.39 3729 3086.09 3726C3068.8 3722.99 3047.33 3714.86 3021.9 3701.81C2971.05 3675.71 2904.49 3629.99 2824.11 3566.52C2663.35 3439.57 2447.4 3241.67 2191.41 2987.84C1679.44 2480.18 1007.38 1748.85 296.563 914.184C-414.249 79.5191 -1029.21 -700.439 -1448.86 -1286.72C-1658.68 -1579.87 -1819.67 -1824.58 -1919.4 -2003.5C-1969.26 -2092.96 -2003.79 -2165.95 -2021.46 -2220.31C-2030.3 -2247.5 -2034.9 -2269.99 -2035.12 -2287.54C-2035.33 -2305.1 -2031.14 -2317.61 -2022.5 -2324.97Z" stroke="#2E0909"/>
<path d="M-1763.74 -2510.74C-1754.54 -2517.39 -1741.38 -2518.48 -1724.38 -2514.1C-1707.39 -2509.72 -1686.63 -2499.89 -1662.33 -2484.85C-1613.74 -2454.76 -1551.05 -2403.85 -1476.01 -2334.14C-1325.95 -2194.73 -1126.54 -1980.16 -891.71 -1706.64C-422.05 -1159.6 189.276 -376.788 830.943 512.134C1472.61 1401.06 2023.12 2227.77 2394.45 2845.79C2580.12 3154.8 2720.99 3411.62 2806.06 3597.95C2848.6 3691.12 2877.18 3766.64 2890.43 3822.24C2897.06 3850.05 2899.85 3872.84 2898.66 3890.35C2897.46 3907.86 2892.29 3920 2883.08 3926.65C2873.88 3933.29 2860.73 3934.38 2843.73 3930C2826.73 3925.62 2805.98 3915.79 2781.68 3900.75C2733.08 3870.66 2670.4 3819.76 2595.36 3750.05C2445.29 3610.63 2245.89 3396.06 2011.05 3122.54C1541.39 2575.5 930.069 1792.69 288.401 903.768C-353.266 14.8452 -903.775 -811.868 -1275.11 -1429.88C-1460.78 -1738.89 -1601.65 -1995.72 -1686.72 -2182.05C-1729.25 -2275.22 -1757.83 -2350.74 -1771.09 -2406.34C-1777.72 -2434.14 -1780.51 -2456.93 -1779.31 -2474.44C-1778.12 -2491.96 -1772.94 -2504.1 -1763.74 -2510.74Z" stroke="#2E0909"/>
<path d="M-1502.4 -2669.21C-1492.71 -2675.13 -1479.52 -2675.2 -1462.9 -2669.53C-1446.29 -2663.85 -1426.36 -2652.46 -1403.28 -2635.59C-1357.14 -2601.86 -1298.56 -2546.29 -1229.1 -2471.02C-1090.19 -2320.48 -907.87 -2091.22 -694.758 -1800.46C-268.537 -1218.93 280.808 -391.446 852.249 544.169C1423.69 1479.78 1909.02 2346.37 2231.76 2991.1C2393.12 3313.47 2513.83 3580.36 2584.33 3772.68C2619.58 3868.84 2642.26 3946.34 2651.21 4002.79C2655.68 4031.02 2656.71 4053.96 2654.17 4071.32C2651.64 4088.7 2645.54 4100.4 2635.86 4106.32C2626.17 4112.23 2612.97 4112.31 2596.36 4106.64C2579.75 4100.96 2559.81 4089.57 2536.74 4072.7C2490.6 4038.97 2432.02 3983.4 2362.56 3908.13C2223.65 3757.59 2041.33 3528.33 1828.22 3237.57C1401.99 2656.04 852.65 1828.56 281.209 892.94C-290.232 -42.6745 -775.566 -909.258 -1098.3 -1553.99C-1259.66 -1876.36 -1380.37 -2143.25 -1450.87 -2335.57C-1486.12 -2431.73 -1508.81 -2509.23 -1517.75 -2565.68C-1522.22 -2593.91 -1523.25 -2616.85 -1520.72 -2634.21C-1518.18 -2651.59 -1512.09 -2663.29 -1502.4 -2669.21Z" stroke="#2E0909"/>
<path d="M-1227.64 -2807.93C-1217.52 -2813.08 -1204.36 -2812.13 -1188.23 -2805.19C-1172.11 -2798.25 -1153.12 -2785.35 -1131.42 -2766.74C-1088.03 -2729.54 -1033.92 -2669.6 -970.5 -2589.18C-843.662 -2428.34 -679.633 -2185.65 -489.667 -1879.27C-109.739 -1266.5 373.904 -398.97 871.207 578.072C1368.51 1555.11 1785.31 2456.66 2057.16 3124.44C2193.09 3458.33 2292.78 3733.77 2348.18 3930.97C2375.88 4029.57 2392.5 4108.59 2397.05 4165.57C2399.32 4194.06 2398.57 4217.01 2394.7 4234.12C2390.82 4251.25 2383.84 4262.45 2373.73 4267.6C2363.61 4272.75 2350.45 4271.8 2334.32 4264.86C2318.2 4257.91 2299.21 4245.01 2277.51 4226.41C2234.12 4189.2 2180.01 4129.27 2116.59 4048.84C1989.75 3888.01 1825.72 3645.32 1635.76 3338.93C1255.83 2726.16 772.186 1858.64 274.883 881.594C-222.42 -95.4473 -639.218 -996.998 -911.074 -1664.78C-1047 -1998.67 -1146.69 -2274.1 -1202.09 -2471.3C-1229.79 -2569.9 -1246.41 -2648.92 -1250.96 -2705.9C-1253.23 -2734.39 -1252.48 -2757.34 -1248.61 -2774.46C-1244.73 -2791.58 -1237.75 -2802.78 -1227.64 -2807.93Z" stroke="#2E0909"/>
<path d="M-940.472 -2925.78C-929.986 -2930.12 -916.938 -2928.15 -901.403 -2919.97C-885.874 -2911.79 -867.945 -2897.45 -847.766 -2877.2C-807.411 -2836.72 -758.147 -2772.74 -701.197 -2687.62C-587.3 -2517.37 -442.715 -2262.62 -277.246 -1942.34C53.6897 -1301.78 468.138 -399.148 887.655 613.732C1307.17 1626.61 1652.32 2557.95 1871.22 3244.91C1980.67 3588.39 2058.56 3870.77 2098.39 4071.69C2118.31 4172.15 2128.71 4252.23 2128.8 4309.39C2128.84 4337.97 2126.3 4360.79 2121.11 4377.55C2115.91 4394.32 2108.07 4404.94 2097.59 4409.29C2087.1 4413.63 2074.05 4411.66 2058.52 4403.48C2042.99 4395.3 2025.06 4380.96 2004.88 4360.71C1964.52 4320.23 1915.26 4256.26 1858.31 4171.13C1744.41 4000.88 1599.83 3746.13 1434.36 3425.85C1103.42 2785.29 688.975 1882.66 269.458 869.779C-150.06 -143.101 -495.211 -1074.44 -714.111 -1761.4C-823.561 -2104.88 -901.445 -2387.26 -941.281 -2588.18C-961.199 -2688.64 -971.6 -2768.72 -971.686 -2825.88C-971.729 -2854.46 -969.192 -2877.28 -963.994 -2894.04C-958.793 -2910.81 -950.959 -2921.43 -940.472 -2925.78Z" stroke="#2E0909"/>
<path d="M-627.703 -3025.34C-616.894 -3028.8 -604.052 -3025.76 -589.245 -3016.33C-574.444 -3006.9 -557.76 -2991.12 -539.321 -2969.28C-502.445 -2925.61 -458.63 -2857.78 -408.9 -2768.25C-309.443 -2589.18 -186.378 -2323.37 -47.9081 -1990.52C229.03 -1324.83 567.564 -391.073 902.051 652.976C1236.54 1697.02 1503.64 2653.67 1665.1 3356.35C1745.82 3707.7 1800.14 3995.54 1823.25 4199.06C1834.81 4300.83 1838.57 4381.49 1833.93 4438.46C1831.62 4466.95 1827.21 4489.48 1820.64 4505.76C1814.08 4522.04 1805.39 4531.98 1794.58 4535.44C1783.77 4538.91 1770.93 4535.87 1756.13 4526.43C1741.32 4517 1724.64 4501.22 1706.2 4479.39C1669.33 4435.71 1625.51 4367.89 1575.78 4278.35C1476.32 4099.28 1353.26 3833.47 1214.79 3500.62C937.851 2834.94 599.316 1901.17 264.829 857.126C-69.6576 -186.923 -336.762 -1143.57 -498.216 -1846.25C-578.944 -2197.6 -633.255 -2485.44 -656.372 -2688.96C-667.93 -2790.73 -671.687 -2871.39 -667.055 -2928.36C-664.738 -2956.85 -660.327 -2979.38 -653.762 -2995.66C-647.195 -3011.94 -638.511 -3021.88 -627.703 -3025.34Z" stroke="#2E0909"/>
<path d="M-334.533 -3094.01C-323.493 -3096.64 -310.919 -3092.64 -296.869 -3082.11C-282.825 -3071.58 -267.383 -3054.59 -250.65 -3031.42C-217.188 -2985.08 -178.634 -2914.13 -135.828 -2821.08C-50.2174 -2635 52.365 -2360.63 165.231 -2018.25C390.963 -1333.5 657.813 -376.788 912.276 689.593C1166.74 1755.97 1360.63 2730.1 1468.41 3442.99C1522.3 3799.44 1554.65 4090.57 1562.29 4295.26C1566.11 4397.61 1563.75 4478.32 1554.82 4534.78C1550.35 4563.01 1544.24 4585.14 1536.47 4600.88C1528.68 4616.62 1519.27 4625.87 1508.23 4628.5C1497.19 4631.14 1484.62 4627.13 1470.57 4616.6C1456.52 4606.08 1441.08 4589.08 1424.35 4565.91C1390.89 4519.57 1352.33 4448.62 1309.53 4355.58C1223.92 4169.49 1121.33 3895.12 1008.47 3552.75C782.737 2868 515.887 1911.28 261.424 844.901C6.96133 -221.48 -186.931 -1195.61 -294.709 -1908.5C-348.598 -2264.95 -380.955 -2556.07 -388.593 -2760.77C-392.412 -2863.12 -390.05 -2943.83 -381.116 -3000.29C-376.649 -3028.52 -370.544 -3050.65 -362.766 -3066.38C-354.985 -3082.12 -345.573 -3091.37 -334.533 -3094.01Z" stroke="#2E0909"/>
<path d="M-19.5178 -3142.1C-8.30206 -3143.84 3.91087 -3138.85 17.0718 -3127.22C30.2272 -3115.61 44.2575 -3097.43 59.0796 -3072.99C88.7211 -3024.12 121.465 -2950.31 156.677 -2854.13C227.1 -2661.79 307.366 -2380.08 392.433 -2029.76C562.565 -1329.12 751.89 -354.1 920.079 729.243C1088.27 1812.59 1203.47 2799.12 1253.78 3518.35C1278.93 3877.98 1287.85 4170.76 1279.06 4375.4C1274.67 4477.73 1265.84 4557.99 1252.42 4613.55C1245.7 4641.34 1237.84 4662.91 1228.83 4677.97C1219.81 4693.03 1209.69 4701.5 1198.47 4703.24C1187.26 4704.98 1175.04 4699.98 1161.88 4688.36C1148.73 4676.74 1134.7 4658.57 1119.87 4634.13C1090.23 4585.26 1057.49 4511.45 1022.28 4415.27C951.853 4222.92 871.587 3941.21 786.521 3590.9C616.388 2890.26 427.064 1915.24 258.875 831.895C90.6857 -251.449 -24.5209 -1237.98 -74.8232 -1957.22C-99.9745 -2316.84 -108.899 -2609.62 -100.109 -2814.27C-95.7135 -2916.59 -86.8904 -2996.86 -73.4617 -3052.42C-66.7468 -3080.2 -58.8873 -3101.77 -49.8736 -3116.83C-40.856 -3131.9 -30.7335 -3140.36 -19.5178 -3142.1Z" stroke="#2E0909"/>
<path d="M285.023 -3164.52C296.339 -3165.39 308.132 -3159.47 320.362 -3146.87C332.586 -3134.28 345.179 -3115.08 358.081 -3089.57C383.881 -3038.57 410.859 -2962.46 438.582 -2863.86C494.025 -2666.68 552.419 -2379.64 610.33 -2023.82C726.153 -1312.19 840.038 -325.505 924.531 767.555C1009.02 1860.62 1048.13 2853.08 1043.04 3574.06C1040.5 3934.55 1026.92 4227.15 1002.44 4430.52C990.194 4532.2 975.233 4611.55 957.577 4665.92C948.749 4693.1 939.256 4714.01 929.112 4728.33C918.964 4742.66 908.221 4750.32 896.905 4751.2C885.589 4752.07 873.796 4746.15 861.566 4733.55C849.342 4720.96 836.749 4701.76 823.847 4676.25C798.046 4625.25 771.068 4549.14 743.346 4450.54C687.903 4253.36 629.509 3966.32 571.597 3610.5C455.775 2898.87 341.89 1912.18 257.396 819.125C172.903 -273.936 133.801 -1266.4 138.883 -1987.38C141.425 -2347.87 155.012 -2640.47 179.493 -2843.84C191.733 -2945.52 206.695 -3024.87 224.35 -3079.24C233.179 -3106.42 242.672 -3127.33 252.816 -3141.65C262.964 -3155.98 273.707 -3163.64 285.023 -3164.52Z" stroke="#2E0909"/>
<path d="M622.102 -3162.16C633.452 -3162.07 644.7 -3155.17 655.818 -3141.58C666.931 -3128 677.851 -3107.8 688.544 -3081.3C709.929 -3028.29 730.358 -2950.17 749.624 -2849.58C788.152 -2648.4 822.005 -2357.44 849.548 -1998C904.632 -1279.11 934.471 -286.322 926.007 809.966C917.544 1906.25 872.379 2898.46 806.202 3616.41C773.113 3975.39 734.771 4265.79 693.141 4466.35C672.325 4566.63 650.691 4644.43 628.491 4697.1C617.39 4723.44 606.159 4743.46 594.838 4756.87C583.512 4770.29 572.158 4777.02 560.808 4776.93C549.458 4776.84 538.21 4769.94 527.092 4756.35C515.979 4742.77 505.059 4722.57 494.366 4696.06C472.981 4643.06 452.552 4564.93 433.286 4464.34C394.758 4263.16 360.905 3972.21 333.362 3612.76C278.278 2893.87 248.439 1901.09 256.902 804.8C265.366 -291.488 310.531 -1283.7 376.708 -2001.65C409.797 -2360.62 448.139 -2651.02 489.769 -2851.58C510.585 -2951.86 532.219 -3029.66 554.419 -3082.33C565.52 -3108.67 576.751 -3128.7 588.072 -3142.11C599.398 -3155.52 610.752 -3162.25 622.102 -3162.16Z" stroke="#2E0909"/>
<path d="M927.282 -3135.25C938.592 -3134.29 949.275 -3126.54 959.312 -3112.14C969.346 -3097.74 978.677 -3076.76 987.296 -3049.51C1004.53 -2995.01 1018.88 -2915.55 1030.34 -2813.77C1053.25 -2610.22 1064.59 -2317.52 1064.35 -1957.02C1063.88 -1236.03 1017.13 -243.893 924.222 848.484C831.311 1940.86 709.829 2926.64 588.528 3637.36C527.877 3992.72 467.274 4279.3 410.314 4476.05C381.832 4574.43 354.269 4650.33 328.076 4701.14C314.978 4726.54 302.238 4745.64 289.917 4758.14C277.591 4770.64 265.752 4776.48 254.443 4775.51C243.134 4774.55 232.45 4766.81 222.413 4752.4C212.38 4738 203.048 4717.02 194.429 4689.77C177.193 4635.27 162.843 4555.81 151.386 4454.03C128.473 4250.48 117.14 3957.78 117.376 3597.28C117.847 2876.29 164.593 1884.15 257.504 791.778C350.415 -300.599 471.897 -1286.38 593.198 -1997.09C653.849 -2352.46 714.452 -2639.04 771.412 -2835.79C799.893 -2934.17 827.457 -3010.07 853.65 -3060.87C866.747 -3086.28 879.488 -3105.38 891.809 -3117.88C904.135 -3130.38 915.973 -3136.21 927.282 -3135.25Z" stroke="#2E0909"/>
<path d="M1228.32 -3084.95C1239.52 -3083.13 1249.57 -3074.58 1258.48 -3059.45C1267.37 -3044.32 1275.07 -3022.69 1281.57 -2994.85C1294.57 -2939.19 1302.78 -2858.86 1306.39 -2756.51C1313.61 -2551.8 1302.44 -2259.1 1274.54 -1899.68C1218.72 -1180.85 1095.96 -195.228 919.472 886.794C742.985 1968.82 546.193 2942.36 370.695 3641.67C282.945 3991.33 200.523 4272.41 128.628 4464.21C92.6789 4560.12 59.3707 4633.68 29.3554 4682.32C14.3464 4706.64 0.177187 4724.71 -13.0668 4736.23C-26.3164 4747.75 -38.5673 4752.65 -49.7694 4750.83C-60.9714 4749 -71.0287 4740.45 -79.9305 4725.32C-88.8286 4710.19 -96.5225 4688.56 -103.024 4660.73C-116.027 4605.07 -124.234 4524.74 -127.845 4422.38C-135.066 4217.67 -123.898 3924.97 -95.9914 3565.55C-40.1778 2846.72 82.5868 1861.1 259.074 779.078C435.562 -302.945 632.354 -1276.49 807.851 -1975.8C895.601 -2325.45 978.023 -2606.54 1049.92 -2798.34C1085.87 -2894.25 1119.18 -2967.8 1149.19 -3016.45C1164.2 -3040.77 1178.37 -3058.84 1191.61 -3070.35C1204.86 -3081.88 1217.11 -3086.78 1228.32 -3084.95Z" stroke="#2E0909"/>
<path d="M1537.3 -3007.99C1548.32 -3005.28 1557.66 -2995.95 1565.32 -2980.16C1572.98 -2964.36 1578.92 -2942.18 1583.17 -2913.92C1591.67 -2857.4 1593.42 -2776.67 1588.82 -2674.35C1579.63 -2469.72 1545.06 -2178.85 1488.46 -1822.82C1375.26 -1110.77 1173.96 -138.148 911.394 926.266C648.826 1990.68 374.705 2945.34 143.771 3628.35C28.3026 3969.86 -76.3643 4243.44 -163.388 4428.87C-206.901 4521.58 -245.993 4592.24 -279.807 4638.32C-296.716 4661.37 -312.286 4678.24 -326.41 4688.66C-340.54 4699.08 -353.144 4702.99 -364.164 4700.27C-375.183 4697.55 -384.524 4688.23 -392.186 4672.43C-399.844 4656.64 -405.781 4634.46 -410.033 4606.2C-418.536 4549.68 -420.285 4468.95 -415.687 4366.63C-406.492 4162 -371.921 3871.13 -315.321 3515.1C-202.123 2803.05 -0.825229 1830.43 261.743 766.011C524.311 -298.403 798.432 -1253.06 1029.37 -1936.07C1144.83 -2277.58 1249.5 -2551.16 1336.53 -2736.59C1380.04 -2829.31 1419.13 -2899.96 1452.94 -2946.04C1469.85 -2969.09 1485.42 -2985.96 1499.55 -2996.38C1513.68 -3006.8 1526.28 -3010.71 1537.3 -3007.99Z" stroke="#2E0909"/>
<path d="M1836.68 -2907.42C1847.45 -2903.84 1856.02 -2893.81 1862.4 -2877.45C1868.78 -2861.1 1872.94 -2838.52 1874.93 -2810C1878.92 -2752.99 1874.25 -2672.37 1861.54 -2570.74C1836.12 -2367.49 1778.56 -2080.29 1693.86 -1729.88C1524.46 -1029.06 1246.55 -75.5017 900.274 964.696C553.995 2004.89 204.918 2934.76 -79.5341 3597.27C-221.761 3928.53 -347.826 4192.94 -449.302 4370.87C-500.042 4459.84 -544.622 4527.16 -581.99 4570.41C-600.675 4592.04 -617.537 4607.63 -632.443 4616.89C-647.356 4626.16 -660.231 4629.05 -671 4625.47C-681.769 4621.88 -690.34 4611.85 -696.722 4595.49C-703.102 4579.14 -707.258 4556.56 -709.252 4528.05C-713.24 4471.03 -708.571 4390.42 -695.861 4288.79C-670.443 4085.54 -612.879 3798.33 -528.181 3447.92C-358.787 2747.11 -80.8753 1793.55 265.403 753.349C611.682 -286.848 960.759 -1216.72 1245.21 -1879.23C1387.44 -2210.49 1513.5 -2474.89 1614.98 -2652.82C1665.72 -2741.79 1710.3 -2809.12 1747.67 -2852.37C1766.35 -2874 1783.21 -2889.58 1798.12 -2898.85C1813.03 -2908.11 1825.91 -2911.01 1836.68 -2907.42Z" stroke="#2E0909"/>
<path d="M2124.53 -2784.6C2134.98 -2780.17 2142.73 -2769.5 2147.81 -2752.69C2152.88 -2735.89 2155.25 -2713.05 2154.99 -2684.47C2154.48 -2627.31 2143.48 -2547.32 2122.81 -2447C2081.47 -2246.38 2001.48 -1964.6 1889.47 -1621.94C1665.44 -936.635 1313.34 -7.90438 886.268 1001.81C459.194 2011.53 38.0128 2911.04 -297.7 3549.11C-465.558 3868.14 -612.042 4121.81 -727.208 4291.2C-784.793 4375.9 -834.533 4439.51 -875.189 4479.68C-895.519 4499.77 -913.555 4513.98 -929.144 4522.04C-944.74 4530.11 -957.803 4531.98 -968.256 4527.56C-978.71 4523.14 -986.464 4512.46 -991.54 4495.65C-996.613 4478.85 -998.979 4456.01 -998.722 4427.43C-998.21 4370.28 -987.211 4290.28 -966.542 4189.97C-925.206 3989.35 -845.215 3707.56 -733.2 3364.91C-509.174 2679.6 -157.073 1750.87 270.001 741.153C697.075 -268.563 1118.26 -1168.08 1453.97 -1806.14C1621.83 -2125.18 1768.31 -2378.84 1883.48 -2548.23C1941.06 -2632.93 1990.8 -2696.54 2031.46 -2736.72C2051.79 -2756.81 2069.82 -2771.02 2085.41 -2779.08C2101.01 -2787.14 2114.07 -2789.02 2124.53 -2784.6Z" stroke="#2E0909"/>
<path d="M2399.34 -2640.89C2409.42 -2635.67 2416.32 -2624.42 2420.07 -2607.26C2423.81 -2590.12 2424.39 -2567.17 2421.91 -2538.69C2416.94 -2481.75 2399.73 -2402.86 2371.3 -2304.46C2314.45 -2107.68 2212.72 -1832.99 2074.32 -1500.11C1797.53 -834.366 1374.06 64.074 869.539 1037.41C365.014 2010.74 -125.041 2874.66 -509.497 3484.6C-701.727 3789.57 -867.549 4031.03 -995.575 4190.93C-1059.59 4270.88 -1114.14 4330.41 -1157.81 4367.3C-1179.64 4385.74 -1198.73 4398.5 -1214.9 4405.32C-1231.08 4412.15 -1244.25 4412.99 -1254.32 4407.77C-1264.4 4402.55 -1271.3 4391.3 -1275.05 4374.14C-1278.8 4357 -1279.37 4334.05 -1276.89 4305.57C-1271.92 4248.63 -1254.71 4169.74 -1226.28 4071.34C-1169.43 3874.56 -1067.7 3599.87 -929.304 3266.99C-652.51 2601.25 -229.046 1702.81 275.48 729.475C780.005 -243.856 1270.06 -1107.78 1654.52 -1717.72C1846.75 -2022.69 2012.57 -2264.15 2140.59 -2424.05C2204.61 -2504 2259.16 -2563.53 2302.83 -2600.42C2324.66 -2618.86 2343.75 -2631.62 2359.92 -2638.44C2376.1 -2645.27 2389.27 -2646.11 2399.34 -2640.89Z" stroke="#2E0909"/>
<path d="M2659.98 -2477.63C2669.63 -2471.65 2675.63 -2459.9 2678.04 -2442.51C2680.45 -2425.12 2679.25 -2402.19 2674.57 -2374C2665.22 -2317.61 2641.96 -2240.28 2606 -2144.38C2534.1 -1952.58 2411.43 -1686.59 2247.7 -1365.41C1920.24 -723.071 1428.55 139.922 850.246 1071.31C271.944 2002.7 -283.467 2826.13 -713.95 3404.5C-929.193 3693.69 -1113.2 3921.61 -1253.21 4071.12C-1323.21 4145.88 -1382.21 4201.02 -1428.59 4234.41C-1451.79 4251.11 -1471.81 4262.36 -1488.46 4267.91C-1505.12 4273.46 -1518.31 4273.29 -1527.95 4267.3C-1537.6 4261.31 -1543.6 4249.56 -1546.01 4232.17C-1548.42 4214.79 -1547.22 4191.86 -1542.54 4163.66C-1533.19 4107.27 -1509.93 4029.95 -1473.97 3934.04C-1402.07 3742.25 -1279.4 3476.25 -1115.67 3155.08C-788.206 2512.74 -296.517 1649.74 281.784 718.353C860.085 -213.037 1415.5 -1036.46 1845.98 -1614.84C2061.22 -1904.03 2245.23 -2131.94 2385.24 -2281.45C2455.24 -2356.21 2514.24 -2411.35 2560.62 -2444.75C2583.82 -2461.45 2603.84 -2472.69 2620.49 -2478.24C2637.15 -2483.79 2650.34 -2483.62 2659.98 -2477.63Z" stroke="#2E0909"/>
<path d="M2917.08 -2287.23C2926.21 -2280.49 2931.26 -2268.29 2932.26 -2250.76C2933.26 -2233.24 2930.22 -2210.48 2923.29 -2182.75C2909.42 -2127.3 2880.02 -2052.1 2836.47 -1959.4C2749.36 -1774.01 2605.69 -1518.75 2416.64 -1211.79C2038.56 -597.878 1479.03 222.754 827.659 1104.59C176.291 1986.43 -443.574 2762.5 -919.199 3304.36C-1157.01 3575.3 -1358.76 3787.67 -1510.34 3925.43C-1586.14 3994.31 -1649.38 4044.52 -1698.3 4074.08C-1722.77 4088.86 -1743.62 4098.45 -1760.67 4102.65C-1777.72 4106.84 -1790.86 4105.61 -1799.98 4098.86C-1809.11 4092.12 -1814.16 4079.92 -1815.16 4062.4C-1816.16 4044.87 -1813.12 4022.12 -1806.19 3994.39C-1792.32 3938.94 -1762.92 3863.73 -1719.37 3771.03C-1632.26 3585.64 -1488.59 3330.38 -1299.54 3023.42C-921.461 2409.51 -361.928 1588.88 289.44 707.04C940.808 -174.799 1560.67 -950.868 2036.3 -1492.73C2274.11 -1763.66 2475.86 -1976.03 2627.44 -2113.79C2703.24 -2182.68 2766.48 -2232.89 2815.4 -2262.45C2839.86 -2277.22 2860.72 -2286.82 2877.77 -2291.01C2894.82 -2295.21 2907.95 -2293.97 2917.08 -2287.23Z" stroke="#2E0909"/>
<path d="M3146.15 -2087.51C3154.74 -2080.09 3158.83 -2067.54 3158.49 -2049.99C3158.16 -2032.44 3153.38 -2009.98 3144.35 -1982.86C3126.29 -1928.63 3091.22 -1855.9 3040.71 -1766.8C2939.69 -1588.61 2776.92 -1345.07 2564.97 -1053.46C2141.07 -470.249 1520.45 305.214 803.582 1134.69C86.7165 1964.16 -590.654 2690.58 -1106.31 3194.5C-1364.13 3446.46 -1581.52 3642.79 -1743.19 3768.56C-1824.03 3831.45 -1890.92 3876.68 -1941.96 3902.41C-1967.48 3915.28 -1989.02 3923.25 -2006.33 3926.13C-2023.65 3929.01 -2036.66 3926.77 -2045.24 3919.35C-2053.83 3911.93 -2057.93 3899.38 -2057.59 3881.83C-2057.25 3864.28 -2052.48 3841.82 -2043.44 3814.71C-2025.38 3760.48 -1990.32 3687.74 -1939.8 3598.64C-1838.78 3420.45 -1676.02 3176.92 -1464.06 2885.31C-1040.16 2302.09 -419.54 1526.63 297.326 697.156C1014.19 -132.315 1691.56 -858.734 2207.21 -1362.66C2465.04 -1614.62 2682.43 -1810.95 2844.1 -1936.72C2924.94 -1999.61 2991.83 -2044.84 3042.87 -2070.57C3068.39 -2083.43 3089.92 -2091.41 3107.24 -2094.29C3124.56 -2097.17 3137.56 -2094.93 3146.15 -2087.51Z" stroke="#2E0909"/>
<path d="M3368.78 -1861.03C3376.75 -1852.94 3379.83 -1840.11 3378.09 -1822.64C3376.35 -1805.17 3369.8 -1783.17 3358.63 -1756.86C3336.29 -1704.25 3295.53 -1634.54 3238.06 -1549.76C3123.13 -1380.21 2941.43 -1150.46 2706.87 -876.707C2237.74 -329.214 1557.16 394.201 776.329 1163.76C-4.49926 1933.33 -737.728 2603.32 -1291.98 3064.44C-1569.11 3295.01 -1801.48 3473.35 -1972.69 3585.8C-2058.29 3642.03 -2128.58 3681.78 -2181.51 3703.35C-2207.98 3714.13 -2230.08 3720.36 -2247.57 3721.85C-2265.06 3723.34 -2277.85 3720.07 -2285.82 3711.98C-2293.78 3703.9 -2296.86 3691.07 -2295.12 3673.6C-2293.38 3656.13 -2286.83 3634.13 -2275.66 3607.82C-2253.33 3555.2 -2212.56 3485.5 -2155.1 3400.72C-2040.16 3231.17 -1858.47 3001.41 -1623.9 2727.67C-1154.77 2180.17 -474.192 1456.76 306.637 687.195C1087.47 -82.3674 1820.69 -752.361 2374.95 -1213.49C2652.08 -1444.05 2884.45 -1622.39 3055.65 -1734.84C3141.26 -1791.07 3211.55 -1830.82 3264.48 -1852.39C3290.95 -1863.18 3313.05 -1869.4 3330.53 -1870.89C3348.03 -1872.38 3360.81 -1869.11 3368.78 -1861.03Z" stroke="#2E0909"/>
<path d="M3563.5 -1628.57C3570.83 -1619.9 3572.92 -1606.87 3569.85 -1589.58C3566.78 -1572.3 3558.57 -1550.86 3545.43 -1525.48C3519.15 -1474.72 3473.19 -1408.33 3409.42 -1328.18C3281.89 -1167.89 3083.2 -952.661 2828.44 -697.599C2318.92 -187.479 1585.15 481.924 747.907 1189.69C-89.3394 1897.46 -871.53 2509.59 -1459.34 2927.1C-1753.24 3135.85 -1998.54 3295.95 -2177.82 3395.02C-2267.47 3444.56 -2340.58 3478.83 -2395 3496.3C-2422.22 3505.03 -2444.73 3509.56 -2462.28 3509.71C-2479.84 3509.86 -2492.34 3505.62 -2499.66 3496.96C-2506.99 3488.29 -2509.08 3475.26 -2506.02 3457.97C-2502.95 3440.69 -2494.74 3419.25 -2481.6 3393.87C-2455.31 3343.11 -2409.35 3276.72 -2345.59 3196.57C-2218.06 3036.28 -2019.37 2821.05 -1764.61 2565.99C-1255.09 2055.86 -521.318 1386.46 315.928 678.692C1153.17 -29.0781 1935.37 -641.2 2523.17 -1058.71C2817.08 -1267.47 3062.38 -1427.56 3241.66 -1526.64C3331.3 -1576.17 3404.42 -1610.44 3458.84 -1627.91C3486.05 -1636.65 3508.56 -1641.17 3526.11 -1641.32C3543.67 -1641.47 3556.17 -1637.24 3563.5 -1628.57Z" stroke="#2E0909"/>
<path d="M3748.72 -1369.39C3755.33 -1360.16 3756.37 -1347.01 3751.93 -1330.02C3747.49 -1313.04 3737.59 -1292.32 3722.45 -1268.08C3692.18 -1219.59 3641.05 -1157.09 3571.07 -1082.31C3431.11 -932.754 3215.81 -734.134 2941.44 -500.304C2392.68 -32.6459 1607.64 575.815 716.381 1214.23C-174.88 1852.65 -1003.6 2400.13 -1622.97 2769.2C-1932.65 2953.74 -2189.99 3093.67 -2376.63 3178.06C-2469.96 3220.26 -2545.58 3248.56 -2601.23 3261.61C-2629.06 3268.14 -2651.86 3270.85 -2669.36 3269.59C-2686.88 3268.33 -2699 3263.11 -2705.61 3253.88C-2712.21 3244.65 -2713.26 3231.5 -2708.81 3214.51C-2704.37 3197.53 -2694.47 3176.82 -2679.34 3152.57C-2649.07 3104.08 -2597.94 3041.59 -2527.96 2966.8C-2387.99 2817.25 -2172.7 2618.63 -1898.32 2384.8C-1349.57 1917.14 -564.528 1308.68 326.733 670.261C1217.99 31.8462 2046.71 -515.639 2666.08 -884.713C2975.77 -1069.25 3233.1 -1209.18 3419.75 -1293.57C3513.07 -1335.77 3588.7 -1364.07 3644.34 -1377.12C3672.17 -1383.65 3694.97 -1386.35 3712.48 -1385.1C3729.99 -1383.84 3742.11 -1378.62 3748.72 -1369.39Z" stroke="#2E0909"/>
<path d="M3905.96 -1107.22C3911.84 -1097.51 3911.87 -1084.31 3906.13 -1067.72C3900.4 -1051.13 3888.94 -1031.24 3871.98 -1008.23C3838.08 -962.212 3782.29 -903.831 3706.77 -834.652C3555.72 -696.298 3325.79 -514.819 3034.25 -302.778C2451.16 121.303 1621.66 667.602 683.95 1235.6C-253.76 1803.6 -1122.12 2285.74 -1768.03 2606.1C-2090.99 2766.28 -2358.33 2886.01 -2550.9 2955.8C-2647.2 2990.69 -2724.77 3013.1 -2781.26 3021.83C-2809.51 3026.2 -2832.45 3027.15 -2849.81 3024.55C-2867.17 3021.94 -2878.85 3015.81 -2884.73 3006.1C-2890.61 2996.39 -2890.64 2983.19 -2884.9 2966.6C-2879.17 2950.01 -2867.71 2930.12 -2850.75 2907.11C-2816.85 2861.09 -2761.06 2802.71 -2685.54 2733.53C-2534.49 2595.18 -2304.56 2413.7 -2013.02 2201.66C-1429.93 1777.58 -600.429 1231.28 337.28 663.281C1274.99 95.2833 2143.35 -386.862 2789.26 -707.22C3112.22 -867.401 3379.56 -987.128 3572.13 -1056.92C3668.43 -1091.81 3746 -1114.22 3802.49 -1122.95C3830.74 -1127.32 3853.68 -1128.27 3871.04 -1125.67C3888.4 -1123.06 3900.08 -1116.93 3905.96 -1107.22Z" stroke="#2E0909"/>
<path d="M4043.47 -831.752C4048.58 -821.618 4047.59 -808.459 4040.58 -792.358C4033.58 -776.264 4020.61 -757.318 4001.93 -735.69C3964.56 -692.437 3904.42 -638.551 3823.77 -575.428C3662.46 -449.186 3419.17 -286.057 3112.08 -97.2284C2497.91 280.427 1628.59 760.852 649.714 1254.53C-329.163 1748.21 -1232.25 2161.67 -1901.03 2431.05C-2235.43 2565.74 -2511.23 2664.4 -2708.63 2719.07C-2807.34 2746.41 -2886.42 2762.73 -2943.41 2767.07C-2971.91 2769.24 -2994.86 2768.4 -3011.96 2764.47C-3029.07 2760.53 -3040.24 2753.5 -3045.35 2743.37C-3050.46 2733.24 -3049.47 2720.08 -3042.47 2703.98C-3035.47 2687.88 -3022.5 2668.94 -3003.81 2647.31C-2966.44 2604.05 -2906.3 2550.17 -2825.65 2487.05C-2664.34 2360.8 -2421.05 2197.68 -2113.96 2008.85C-1499.79 1631.19 -630.474 1150.77 348.403 657.087C1327.28 163.407 2230.37 -250.047 2899.15 -519.427C3233.54 -654.118 3509.34 -752.785 3706.75 -807.452C3805.45 -834.787 3884.53 -851.114 3941.53 -855.45C3970.03 -857.618 3992.97 -856.785 4010.08 -852.848C4027.19 -848.909 4038.36 -841.886 4043.47 -831.752Z" stroke="#2E0909"/>
<path d="M4165.67 -530.245C4169.93 -519.727 4167.87 -506.694 4159.57 -491.22C4151.27 -475.753 4136.8 -457.931 4116.4 -437.904C4075.62 -397.854 4011.28 -349.069 3925.73 -292.757C3754.63 -180.137 3498.81 -37.4618 3177.3 125.607C2534.28 451.744 1628.58 859.429 612.587 1271.36C-403.401 1683.29 -1337.29 2021.47 -2025.87 2235.22C-2370.16 2342.1 -2653.11 2417.87 -2854.33 2456.2C-2954.94 2475.37 -3035.09 2485.17 -3092.25 2484.83C-3120.83 2484.66 -3143.63 2481.95 -3160.35 2476.63C-3177.08 2471.3 -3187.64 2463.39 -3191.91 2452.87C-3196.17 2442.35 -3194.11 2429.32 -3185.81 2413.84C-3177.51 2398.38 -3163.04 2380.56 -3142.65 2360.53C-3101.87 2320.48 -3037.52 2271.69 -2951.97 2215.38C-2780.87 2102.76 -2525.05 1960.09 -2203.54 1797.02C-1560.53 1470.88 -654.818 1063.2 361.171 651.265C1377.16 239.334 2311.05 -98.8419 2999.63 -312.598C3343.92 -419.477 3626.87 -495.246 3828.09 -533.578C3928.7 -552.745 4008.85 -562.547 4066.01 -562.205C4094.59 -562.034 4117.39 -559.327 4134.11 -554.003C4150.84 -548.677 4161.4 -540.764 4165.67 -530.245Z" stroke="#2E0909"/>
<path d="M4259.25 -231.028C4262.68 -220.206 4259.59 -207.377 4250.1 -192.605C4240.61 -177.84 4224.77 -161.216 4202.86 -142.859C4159.05 -106.148 4091.06 -62.5891 4001.34 -13.1974C3821.89 85.5823 3555.62 207.643 3222.25 344.856C2555.52 619.279 1620.49 954.286 575.188 1284.83C-470.116 1615.37 -1427.76 1878.86 -2131.05 2037.66C-2482.7 2117.06 -2770.74 2170.29 -2974.35 2192.64C-3076.16 2203.81 -3156.84 2207.26 -3213.79 2202.42C-3242.27 2199.99 -3264.78 2195.5 -3281.04 2188.87C-3297.29 2182.24 -3307.2 2173.52 -3310.62 2162.7C-3314.04 2151.88 -3310.95 2139.05 -3301.46 2124.28C-3291.97 2109.51 -3276.14 2092.89 -3254.23 2074.53C-3210.42 2037.82 -3142.43 1994.26 -3052.7 1944.87C-2873.26 1846.09 -2606.98 1724.03 -2273.62 1586.81C-1606.89 1312.39 -671.859 977.385 373.445 646.842C1418.75 316.298 2376.4 52.8066 3079.69 -105.994C3431.33 -185.394 3719.38 -238.619 3922.99 -260.967C4024.8 -272.141 4105.47 -275.594 4162.42 -270.746C4190.9 -268.322 4213.42 -263.826 4229.67 -257.2C4245.93 -250.572 4255.83 -241.85 4259.25 -231.028Z" stroke="#2E0909"/>
<path d="M4326.19 62.6677C4328.78 73.7177 4324.73 86.2766 4314.14 100.286C4303.56 114.29 4286.51 129.667 4263.28 146.312C4216.81 179.598 4145.71 217.88 4052.51 260.333C3866.1 345.234 3591.34 446.771 3248.54 558.334C2562.93 781.457 1605.21 1044.66 537.867 1295.07C-529.475 1545.47 -1504.33 1735.65 -2217.63 1840.71C-2574.28 1893.25 -2865.53 1924.5 -3070.25 1931.35C-3172.61 1934.78 -3253.32 1932.11 -3309.74 1922.97C-3337.95 1918.39 -3360.06 1912.2 -3375.76 1904.36C-3391.47 1896.52 -3400.69 1887.08 -3403.28 1876.03C-3405.87 1864.98 -3401.82 1852.42 -3391.24 1838.41C-3380.66 1824.4 -3363.61 1809.03 -3340.37 1792.38C-3293.91 1759.1 -3222.81 1720.81 -3129.6 1678.36C-2943.19 1593.46 -2668.43 1491.92 -2325.63 1380.36C-1640.03 1157.24 -682.304 894.03 385.038 643.628C1452.38 393.226 2427.24 203.043 3140.53 97.9795C3497.19 45.4476 3788.43 14.1981 3993.15 7.33946C4095.52 3.91013 4176.22 6.57989 4232.64 15.728C4260.86 20.3024 4282.97 26.4921 4298.67 34.3298C4314.38 42.1709 4323.59 51.6176 4326.19 62.6677Z" stroke="#2E0909"/>
<path d="M4373.37 377.906C4375.07 389.129 4370.03 401.322 4358.35 414.438C4346.68 427.549 4328.46 441.51 4303.96 456.238C4254.98 485.692 4181.04 518.152 4084.73 552.996C3892.11 622.681 3610.1 701.866 3259.46 785.589C2558.17 953.034 1582.43 1138.62 498.452 1302.65C-585.528 1466.69 -1572.49 1578.11 -2291.92 1625.65C-2651.63 1649.43 -2944.45 1657.23 -3149.06 1647.65C-3251.37 1642.87 -3331.6 1633.74 -3387.1 1620.09C-3414.86 1613.27 -3436.4 1605.33 -3451.43 1596.26C-3466.46 1587.18 -3474.89 1577.03 -3476.58 1565.81C-3478.28 1554.58 -3473.24 1542.39 -3461.56 1529.27C-3449.9 1516.16 -3431.67 1502.2 -3407.17 1487.47C-3358.19 1458.02 -3284.25 1425.56 -3187.94 1390.72C-2995.32 1321.03 -2713.31 1241.85 -2362.67 1158.12C-1661.39 990.678 -685.644 805.094 398.336 641.06C1482.32 477.026 2469.28 365.602 3188.71 318.058C3548.42 294.286 3841.24 286.485 4045.85 296.059C4148.16 300.846 4228.39 309.977 4283.89 323.619C4311.65 330.44 4333.19 338.382 4348.22 347.454C4363.25 356.529 4371.67 366.684 4373.37 377.906Z" stroke="#2E0909"/>
<path d="M4394.39 682.614C4395.22 693.933 4389.25 705.703 4376.6 717.884C4363.96 730.06 4344.72 742.579 4319.16 755.382C4268.06 780.986 4191.85 807.671 4093.14 835.013C3895.74 889.696 3608.48 946.984 3252.44 1003.52C2540.37 1116.6 1553.26 1226.69 459.878 1306.97C-633.499 1387.25 -1626.11 1422.53 -2347.06 1414.67C-2707.54 1410.74 -3000.09 1396.02 -3203.36 1370.76C-3304.99 1358.13 -3384.29 1342.86 -3438.58 1325C-3465.73 1316.06 -3486.6 1306.49 -3500.88 1296.29C-3515.17 1286.09 -3522.8 1275.31 -3523.63 1263.99C-3524.46 1252.68 -3518.49 1240.91 -3505.84 1228.72C-3493.2 1216.55 -3473.96 1204.03 -3448.4 1191.23C-3397.3 1165.62 -3321.09 1138.94 -3222.39 1111.6C-3024.99 1056.91 -2737.72 999.625 -2381.68 943.084C-1669.61 830.004 -682.498 719.921 410.88 639.64C1504.26 559.359 2496.87 524.08 3217.82 531.94C3578.3 535.87 3870.84 550.585 4074.11 575.849C4175.75 588.481 4255.05 603.748 4309.34 621.613C4336.49 630.546 4357.36 640.12 4371.64 650.319C4385.93 660.522 4393.55 671.294 4394.39 682.614Z" stroke="#2E0909"/>
<path d="M4391.4 1019.66C4391.27 1031.01 4384.32 1042.23 4370.69 1053.3C4357.06 1064.36 4336.82 1075.2 4310.28 1085.79C4257.19 1106.97 4178.99 1127.1 4078.32 1145.98C3877 1183.73 3585.91 1216.46 3226.36 1242.61C2507.27 1294.92 1514.37 1320.93 418.125 1308.23C-678.123 1295.54 -1670.15 1246.54 -2387.84 1177.6C-2746.69 1143.12 -3036.93 1103.66 -3237.33 1061.26C-3337.53 1040.05 -3415.25 1018.12 -3467.83 995.715C-3494.12 984.512 -3514.11 973.204 -3527.47 961.831C-3540.85 950.454 -3547.53 939.074 -3547.4 927.725C-3547.27 916.375 -3540.32 905.154 -3526.69 894.089C-3513.06 883.028 -3492.82 872.186 -3466.28 861.595C-3413.19 840.415 -3334.99 820.287 -3234.32 801.411C-3033 763.659 -2741.91 730.929 -2382.36 704.774C-1663.27 652.465 -670.374 626.458 425.873 639.154C1522.12 651.849 2514.15 700.843 3231.84 769.791C3590.68 804.266 3880.93 843.728 4081.33 886.132C4181.53 907.335 4259.24 929.269 4311.83 951.672C4338.12 962.875 4358.11 974.183 4371.47 985.556C4384.85 996.934 4391.53 1008.31 4391.4 1019.66Z" stroke="#2E0909"/>
<path d="M4363.22 1324.69C4362.22 1336 4354.43 1346.65 4339.99 1356.63C4325.55 1366.61 4304.53 1375.86 4277.25 1384.38C4222.69 1401.4 4143.17 1415.45 4041.35 1426.51C3837.71 1448.64 3544.97 1458.85 3184.47 1457.22C2463.49 1453.97 1471.54 1403.41 379.53 1306.29C-712.482 1209.18 -1697.78 1083.9 -2408.03 959.862C-2763.15 897.843 -3049.5 836.137 -3246.03 778.42C-3344.3 749.56 -3420.1 721.704 -3470.8 695.316C-3496.15 682.121 -3515.2 669.306 -3527.66 656.937C-3540.11 644.563 -3545.9 632.703 -3544.89 621.397C-3543.89 610.092 -3536.1 599.438 -3521.65 589.456C-3507.22 579.479 -3486.2 570.228 -3458.92 561.714C-3404.35 544.687 -3324.84 530.644 -3223.01 519.579C-3019.38 497.45 -2726.64 487.244 -2366.14 488.867C-1645.15 492.115 -653.208 542.681 438.803 639.797C1530.81 736.913 2516.12 862.191 3226.36 986.227C3581.49 1048.25 3867.83 1109.95 4064.37 1167.67C4162.64 1196.53 4238.43 1224.39 4289.13 1250.77C4314.48 1263.97 4333.54 1276.78 4345.99 1289.15C4358.44 1301.53 4364.23 1313.39 4363.22 1324.69Z" stroke="#2E0909"/>
<path d="M4311.56 1625.41C4309.69 1636.6 4301.1 1646.63 4285.94 1655.47C4270.77 1664.31 4249.11 1671.92 4221.25 1678.32C4165.55 1691.11 4085.18 1699.01 3982.81 1702.22C3778.08 1708.66 3485.42 1696.37 3126.11 1667.09C2407.5 1608.52 1422.36 1481.98 341.021 1301.35C-740.317 1120.72 -1713.1 920.201 -2411.73 742.026C-2761.05 652.937 -3041.82 569.439 -3233.34 496.809C-3329.11 460.493 -3402.54 426.904 -3451.07 396.702C-3475.33 381.6 -3493.34 367.362 -3504.81 354.074C-3516.28 340.78 -3521.14 328.511 -3519.27 317.316C-3517.4 306.121 -3508.82 296.096 -3493.65 287.252C-3478.49 278.412 -3456.82 270.801 -3428.97 264.406C-3373.26 251.617 -3292.9 243.717 -3190.53 240.499C-2985.79 234.062 -2693.13 246.351 -2333.82 275.634C-1615.21 334.201 -630.071 460.74 451.267 641.371C1532.6 822.002 2505.39 1022.52 3204.02 1200.7C3553.34 1289.79 3834.1 1373.28 4025.63 1445.91C4121.4 1482.23 4194.83 1515.82 4243.35 1546.02C4267.62 1561.12 4285.63 1575.36 4297.1 1588.65C4308.57 1601.94 4313.43 1614.21 4311.56 1625.41Z" stroke="#2E0909"/>
<path d="M4233.62 1934C4230.86 1945.01 4221.5 1954.32 4205.67 1961.92C4189.85 1969.52 4167.65 1975.37 4139.37 1979.51C4082.82 1987.8 4002.08 1989.24 3899.78 1984.26C3695.19 1974.28 3404.45 1938.61 3048.64 1880.65C2337.02 1764.75 1365.17 1559.76 301.764 1293.14C-761.644 1026.53 -1715.25 748.782 -2397.38 515.252C-2738.45 398.487 -3011.63 292.781 -3196.72 205.053C-3289.27 161.187 -3359.78 121.827 -3405.74 87.838C-3428.71 70.8419 -3445.53 55.2073 -3455.89 41.0441C-3466.26 26.8749 -3470.12 14.2558 -3467.36 3.24649C-3464.6 -7.76284 -3455.25 -17.0682 -3439.42 -24.6694C-3423.6 -32.2673 -3401.4 -38.1198 -3373.12 -42.2644C-3316.56 -50.553 -3235.83 -51.9945 -3133.53 -47.008C-2928.94 -37.0353 -2638.2 -1.35803 -2282.39 56.5944C-1570.77 172.499 -598.92 377.493 464.488 644.106C1527.9 910.719 2481.51 1188.47 3163.63 1422C3504.7 1538.76 3777.88 1644.47 3962.98 1732.2C4055.53 1776.06 4126.03 1815.42 4171.99 1849.41C4194.97 1866.41 4211.78 1882.04 4222.15 1896.2C4232.52 1910.37 4236.38 1922.99 4233.62 1934Z" stroke="#2E0909"/>
<path d="M4132.02 2232.84C4128.39 2243.6 4118.32 2252.13 4101.94 2258.45C4085.57 2264.77 4062.97 2268.84 4034.45 2270.73C3977.42 2274.5 3896.82 2269.53 3795.24 2256.44C3592.09 2230.25 3305.1 2171.61 2955.01 2085.59C2254.85 1913.56 1302.34 1632.05 263.452 1281.86C-775.433 931.661 -1703.98 579.082 -2365.42 292.135C-2696.14 148.661 -2960.06 21.6002 -3137.61 -80.5456C-3226.39 -131.62 -3293.54 -176.454 -3336.66 -213.984C-3358.21 -232.751 -3373.73 -249.671 -3382.94 -264.612C-3392.15 -279.56 -3395 -292.446 -3391.37 -303.201C-3387.75 -313.957 -3377.68 -322.49 -3361.3 -328.81C-3344.93 -335.128 -3322.33 -339.2 -3293.81 -341.086C-3236.78 -344.859 -3156.18 -339.886 -3054.6 -326.794C-2851.45 -300.61 -2564.46 -241.963 -2214.37 -155.946C-1514.2 16.088 -561.696 297.591 477.189 647.787C1516.07 997.983 2444.62 1350.56 3106.06 1637.51C3436.78 1780.98 3700.7 1908.04 3878.25 2010.19C3967.03 2061.26 4034.19 2106.1 4077.3 2143.63C4098.85 2162.39 4114.38 2179.31 4123.58 2194.26C4132.8 2209.2 4135.64 2222.09 4132.02 2232.84Z" stroke="#2E0909"/>
<path d="M4008.14 2520.09C4003.68 2530.52 3992.98 2538.24 3976.15 2543.25C3959.33 2548.26 3936.48 2550.54 3907.9 2550.18C3850.75 2549.45 3770.8 2538.16 3670.56 2517.11C3470.1 2475.03 3188.61 2393.99 2846.38 2280.69C2161.91 2054.11 1234.5 1698.54 226.387 1267.7C-781.728 836.861 -1679.66 412.325 -2316.47 74.2315C-2634.88 -94.8163 -2887.99 -242.246 -3056.95 -358.044C-3141.43 -415.944 -3204.86 -465.922 -3244.88 -506.728C-3264.9 -527.132 -3279.04 -545.221 -3287.04 -560.84C-3295.05 -576.467 -3296.87 -589.536 -3292.41 -599.973C-3287.95 -610.41 -3277.25 -618.125 -3260.42 -623.137C-3243.6 -628.147 -3220.75 -630.428 -3192.17 -630.065C-3135.02 -629.339 -3055.06 -618.041 -2954.83 -596.998C-2754.36 -554.913 -2472.88 -473.871 -2130.64 -360.578C-1446.18 -133.994 -518.77 221.571 489.345 652.413C1497.46 1083.25 2395.39 1507.79 3032.2 1845.88C3350.61 2014.93 3603.72 2162.36 3772.68 2278.16C3857.17 2336.06 3920.59 2386.04 3960.61 2426.84C3980.63 2447.25 3994.77 2465.34 4002.77 2480.96C4010.78 2496.58 4012.61 2509.65 4008.14 2520.09Z" stroke="#2E0909"/>
<path d="M3863.46 2794.2C3858.2 2804.26 3846.92 2811.11 3829.76 2814.8C3812.6 2818.48 3789.64 2818.98 3761.18 2816.39C3704.25 2811.21 3625.42 2793.71 3527.13 2764.92C3330.56 2707.33 3056.25 2604.59 2723.89 2464.96C2059.17 2185.7 1162.31 1758.92 190.849 1250.79C-780.608 742.669 -1642.71 249.42 -2251.22 -137.291C-2555.48 -330.648 -2796.33 -497.362 -2955.75 -625.979C-3035.46 -690.29 -3094.8 -745.061 -3131.52 -788.862C-3149.88 -810.765 -3162.57 -829.901 -3169.33 -846.097C-3176.09 -862.3 -3176.89 -875.472 -3171.63 -885.53C-3166.37 -895.587 -3155.1 -902.444 -3137.93 -906.129C-3120.77 -909.812 -3097.82 -910.305 -3069.35 -907.715C-3012.43 -902.535 -2933.6 -885.039 -2835.31 -856.245C-2638.74 -798.66 -2364.43 -695.919 -2032.06 -556.289C-1367.35 -277.033 -470.482 149.753 500.976 657.877C1472.43 1166 2334.54 1659.25 2943.05 2045.96C3247.31 2239.32 3488.16 2406.03 3647.57 2534.65C3727.29 2598.96 3786.62 2653.73 3823.34 2697.53C3841.71 2719.44 3854.39 2738.57 3861.16 2754.77C3867.92 2770.97 3868.72 2784.14 3863.46 2794.2Z" stroke="#2E0909"/>
<path d="M3699.28 3054.11C3693.26 3063.73 3681.48 3069.7 3664.08 3072.04C3646.69 3074.39 3623.77 3073.11 3595.59 3068.32C3539.23 3058.76 3461.99 3035.22 3366.22 2998.91C3174.69 2926.3 2909.15 2802.65 2588.58 2637.74C1947.44 2307.93 1086.26 1813.07 157.003 1231.35C-772.257 649.635 -1593.64 91.2036 -2170.43 -341.401C-2458.83 -557.705 -2686.06 -742.543 -2835.06 -883.102C-2909.56 -953.384 -2964.48 -1012.58 -2997.71 -1059.09C-3014.32 -1082.35 -3025.49 -1102.41 -3030.98 -1119.08C-3036.47 -1135.75 -3036.25 -1148.95 -3030.23 -1158.57C-3024.21 -1168.19 -3012.43 -1174.15 -2995.03 -1176.5C-2977.64 -1178.84 -2954.72 -1177.56 -2926.54 -1172.78C-2870.18 -1163.21 -2792.94 -1139.67 -2697.17 -1103.37C-2505.64 -1030.75 -2240.1 -907.109 -1919.53 -742.199C-1278.39 -412.382 -417.213 82.4738 512.047 664.192C1441.31 1245.91 2262.69 1804.34 2839.48 2236.95C3127.88 2453.25 3355.11 2638.09 3504.11 2778.65C3578.61 2848.93 3633.53 2908.12 3666.76 2954.63C3683.37 2977.89 3694.54 2997.95 3700.03 3014.62C3705.52 3031.3 3705.3 3044.49 3699.28 3054.11Z" stroke="#2E0909"/>
<path d="M3508.1 3310.51C3501.33 3319.61 3489.11 3324.61 3471.58 3325.55C3454.05 3326.49 3431.31 3323.37 3403.6 3316.33C3348.2 3302.27 3273.11 3272.59 3180.57 3228.7C2995.5 3140.91 2740.76 2996.31 2434.49 2806.15C1821.97 2425.83 1003.38 1863.3 123.929 1208.72C-755.527 554.135 -1529.33 -68.5583 -2069.45 -546.158C-2339.51 -784.959 -2551.14 -987.477 -2688.35 -1139.57C-2756.96 -1215.61 -2806.94 -1279.03 -2836.32 -1328.07C-2851.01 -1352.58 -2860.53 -1373.48 -2864.66 -1390.53C-2868.79 -1407.6 -2867.51 -1420.73 -2860.73 -1429.84C-2853.95 -1438.94 -2841.74 -1443.94 -2824.21 -1444.88C-2806.68 -1445.82 -2783.93 -1442.7 -2756.23 -1435.66C-2700.83 -1421.59 -2625.73 -1391.92 -2533.2 -1348.02C-2348.13 -1260.24 -2093.39 -1115.64 -1787.12 -925.475C-1174.6 -545.153 -356.011 17.3716 523.444 671.954C1402.9 1326.54 2176.7 1949.23 2716.82 2426.83C2986.89 2665.63 3198.52 2868.15 3335.72 3020.24C3404.33 3096.28 3454.31 3159.7 3483.69 3208.74C3498.38 3233.26 3507.9 3254.15 3512.03 3271.21C3516.16 3288.27 3514.88 3301.41 3508.1 3310.51Z" stroke="#2E0909"/>
<path d="M3307.58 3538.8C3300.12 3547.36 3287.57 3551.41 3270.01 3551C3252.47 3550.6 3230.02 3545.75 3202.94 3536.62C3148.78 3518.36 3076.17 3483.03 2987.25 3432.19C2809.43 3330.52 2566.49 3166.87 2275.65 2953.86C1693.98 2527.84 920.783 1904.4 93.9247 1184.52C-732.934 464.647 -1456.88 -215.362 -1958.93 -732.842C-2209.95 -991.584 -2405.49 -1209.68 -2530.67 -1371.81C-2593.26 -1452.88 -2638.25 -1519.94 -2663.8 -1571.07C-2676.57 -1596.64 -2684.46 -1618.2 -2687.28 -1635.52C-2690.09 -1652.85 -2687.81 -1665.85 -2680.36 -1674.41C-2672.91 -1682.97 -2660.35 -1687.02 -2642.79 -1686.62C-2625.25 -1686.21 -2602.81 -1681.36 -2575.72 -1672.23C-2521.56 -1653.97 -2448.95 -1618.64 -2360.04 -1567.8C-2182.22 -1466.13 -1939.27 -1302.49 -1648.44 -1089.47C-1066.77 -663.454 -293.566 -40.0155 533.293 679.863C1360.15 1399.74 2084.1 2079.75 2586.14 2597.23C2837.17 2855.97 3032.7 3074.07 3157.89 3236.2C3220.48 3317.27 3265.47 3384.32 3291.01 3435.46C3303.79 3461.03 3311.68 3482.59 3314.5 3499.91C3317.31 3517.24 3315.03 3530.24 3307.58 3538.8Z" stroke="#2E0909"/>
<path d="M3080.33 3760.62C3072.22 3768.56 3059.38 3771.59 3041.91 3769.79C3024.46 3767.99 3002.47 3761.36 2976.21 3750.09C2923.67 3727.56 2854.12 3686.55 2769.55 3628.77C2600.42 3513.22 2371.32 3330.69 2098.43 3095.13C1552.64 2624.02 831.704 1940.81 64.9836 1157.2C-701.737 373.576 -1369.06 -362.082 -1828.17 -918.007C-2057.73 -1195.97 -2235.22 -1428.99 -2347.05 -1600.6C-2402.97 -1686.41 -2442.46 -1756.84 -2463.84 -1809.85C-2474.53 -1836.36 -2480.68 -1858.48 -2482.1 -1875.98C-2483.52 -1893.48 -2480.21 -1906.25 -2472.1 -1914.19C-2463.98 -1922.13 -2451.14 -1925.16 -2433.67 -1923.36C-2416.22 -1921.55 -2394.23 -1914.92 -2367.97 -1903.66C-2315.43 -1881.13 -2245.88 -1840.11 -2161.31 -1782.34C-1992.18 -1666.79 -1763.08 -1484.26 -1490.19 -1248.7C-944.402 -777.584 -223.465 -94.3817 543.255 689.238C1309.98 1472.86 1977.3 2208.52 2436.41 2764.44C2665.96 3042.4 2843.46 3275.42 2955.29 3447.03C3011.21 3532.84 3050.7 3603.28 3072.08 3656.29C3082.77 3682.79 3088.92 3704.92 3090.34 3722.41C3091.76 3739.91 3088.45 3752.68 3080.33 3760.62Z" stroke="#2E0909"/>
<path d="M2847.19 3954.57C2838.49 3961.86 2825.45 3963.91 2808.18 3960.78C2790.91 3957.65 2769.5 3949.36 2744.16 3936.12C2693.5 3909.66 2627.28 3863.45 2547.36 3799.4C2387.54 3671.28 2173.03 3471.81 1918.9 3216.13C1410.63 2704.75 743.906 1968.55 39.187 1128.74C-665.532 288.921 -1274.8 -495.492 -1690.17 -1084.81C-1897.86 -1379.48 -2057.06 -1625.36 -2155.48 -1805C-2204.69 -1894.82 -2238.69 -1968.06 -2255.97 -2022.55C-2264.6 -2049.79 -2269.05 -2072.32 -2269.13 -2089.87C-2269.21 -2107.43 -2264.94 -2119.91 -2256.24 -2127.21C-2247.55 -2134.5 -2234.51 -2136.55 -2217.23 -2133.42C-2199.96 -2130.29 -2178.55 -2122 -2153.22 -2108.77C-2102.56 -2082.3 -2036.33 -2036.1 -1956.42 -1972.04C-1796.59 -1843.93 -1582.08 -1644.45 -1327.95 -1388.77C-819.689 -877.394 -152.961 -141.195 551.757 698.622C1256.48 1538.44 1865.75 2322.85 2281.12 2912.17C2488.8 3206.84 2648 3452.72 2746.42 3632.36C2795.64 3722.18 2829.64 3795.42 2846.91 3849.91C2855.55 3877.15 2859.99 3899.68 2860.07 3917.23C2860.16 3934.79 2855.88 3947.27 2847.19 3954.57Z" stroke="#2E0909"/>
<path d="M2587.26 4138.85C2578.01 4145.43 2564.85 4146.42 2547.88 4141.92C2530.92 4137.41 2510.24 4127.44 2486.05 4112.21C2437.67 4081.77 2375.36 4030.41 2300.84 3960.15C2151.79 3819.65 1953.96 3603.63 1721.13 3328.4C1255.48 2777.94 649.896 1990.68 14.7422 1097.09C-620.412 203.503 -1164.86 -627.212 -1531.67 -1247.92C-1715.08 -1558.28 -1854.06 -1816.13 -1937.77 -2003.08C-1979.63 -2096.56 -2007.65 -2172.29 -2020.5 -2227.98C-2026.93 -2255.83 -2029.55 -2278.64 -2028.23 -2296.14C-2026.9 -2313.65 -2021.64 -2325.75 -2012.39 -2332.33C-2003.14 -2338.9 -1989.98 -2339.9 -1973.01 -2335.39C-1956.04 -2330.89 -1935.37 -2320.91 -1911.17 -2305.69C-1862.8 -2275.25 -1800.49 -2223.89 -1725.96 -2153.63C-1576.92 -2013.12 -1379.09 -1797.1 -1146.26 -1521.87C-680.61 -971.415 -75.022 -184.155 560.132 709.433C1195.29 1603.02 1739.74 2433.74 2106.55 3054.45C2289.95 3364.81 2428.94 3622.65 2512.65 3809.6C2554.5 3903.08 2582.52 3978.81 2595.37 4034.51C2601.8 4062.36 2604.42 4085.17 2603.1 4102.67C2601.78 4120.17 2596.51 4132.28 2587.26 4138.85Z" stroke="#2E0909"/>
<path d="M2324.45 4295.3C2314.72 4301.15 2301.52 4301.13 2284.95 4295.33C2268.38 4289.54 2248.53 4278 2225.58 4260.96C2179.69 4226.89 2121.52 4170.89 2052.61 4095.11C1914.82 3943.55 1734.19 3712.96 1523.22 3420.63C1101.28 2835.99 558.039 2004.49 -6.50554 1064.7C-571.05 124.904 -1050 -745.225 -1367.98 -1392.31C-1526.97 -1715.86 -1645.72 -1983.63 -1714.8 -2176.46C-1749.34 -2272.88 -1771.45 -2350.54 -1779.98 -2407.06C-1784.25 -2435.32 -1785.11 -2458.27 -1782.44 -2475.61C-1779.78 -2492.97 -1773.6 -2504.63 -1763.87 -2510.47C-1754.14 -2516.32 -1740.94 -2516.3 -1724.37 -2510.5C-1707.8 -2504.71 -1687.95 -2493.17 -1665 -2476.13C-1619.11 -2442.06 -1560.94 -2386.06 -1492.04 -2310.28C-1354.24 -2158.72 -1173.61 -1928.13 -962.639 -1635.8C-540.706 -1051.16 2.53902 -219.659 567.084 720.133C1131.63 1659.93 1610.58 2530.05 1928.56 3177.14C2087.55 3500.69 2206.29 3768.46 2275.37 3961.29C2309.92 4057.71 2332.03 4135.37 2340.56 4191.89C2344.83 4220.15 2345.69 4243.1 2343.02 4260.44C2340.36 4277.8 2334.18 4289.46 2324.45 4295.3Z" stroke="#2E0909"/>
<path d="M2048.43 4431.96C2038.28 4437.03 2025.12 4435.99 2009.05 4428.92C1992.98 4421.86 1974.08 4408.82 1952.53 4390.06C1909.41 4352.53 1855.75 4292.19 1792.92 4211.3C1667.28 4049.53 1505.06 3805.64 1317.37 3497.85C941.991 2882.28 464.791 2011.19 -25.2561 1030.49C-515.303 49.7895 -925.408 -854.826 -1192.31 -1524.6C-1325.76 -1859.49 -1423.4 -2135.66 -1477.34 -2333.26C-1504.3 -2432.07 -1520.34 -2511.21 -1524.46 -2568.22C-1526.53 -2596.72 -1525.61 -2619.67 -1521.61 -2636.76C-1517.6 -2653.85 -1510.54 -2665 -1500.39 -2670.07C-1490.23 -2675.14 -1477.08 -2674.1 -1461 -2667.04C-1444.94 -2659.98 -1426.04 -2646.94 -1404.48 -2628.17C-1361.37 -2590.65 -1307.7 -2530.31 -1244.88 -2449.42C-1119.24 -2287.64 -957.011 -2043.75 -769.321 -1735.96C-393.946 -1120.39 83.254 -249.304 573.301 731.396C1063.35 1712.1 1473.45 2616.71 1740.35 3286.49C1873.8 3621.38 1971.45 3897.54 2025.38 4095.15C2052.35 4193.95 2068.38 4273.09 2072.51 4330.1C2074.57 4358.61 2073.65 4381.55 2069.65 4398.64C2065.65 4415.74 2058.59 4426.88 2048.43 4431.96Z" stroke="#2E0909"/>
<path d="M1746.25 4552.9C1735.72 4557.13 1722.69 4555.01 1707.25 4546.66C1691.81 4538.3 1674.04 4523.76 1654.09 4503.29C1614.2 4462.36 1565.65 4397.84 1509.66 4312.07C1397.68 4140.56 1255.96 3884.2 1094.1 3562.09C770.372 2917.86 366.078 2010.63 -42.0483 993.105C-450.174 -24.4178 -784.854 -959.567 -996.032 -1648.94C-1101.62 -1993.63 -1176.33 -2276.86 -1213.91 -2478.22C-1232.7 -2578.9 -1242.2 -2659.09 -1241.65 -2716.25C-1241.37 -2744.83 -1238.58 -2767.62 -1233.19 -2784.32C-1227.8 -2801.03 -1219.85 -2811.56 -1209.31 -2815.79C-1198.78 -2820.01 -1185.75 -2817.9 -1170.31 -2809.54C-1154.88 -2801.19 -1137.11 -2786.64 -1117.16 -2766.18C-1077.26 -2725.25 -1028.72 -2660.72 -972.726 -2574.96C-860.747 -2403.44 -719.03 -2147.09 -557.165 -1824.97C-233.437 -1180.74 170.857 -273.512 578.983 744.011C987.109 1761.53 1321.79 2696.68 1532.97 3386.06C1638.56 3730.75 1713.27 4013.98 1750.85 4215.34C1769.64 4316.02 1779.14 4396.21 1778.58 4453.36C1778.3 4481.94 1775.51 4504.73 1770.13 4521.44C1764.74 4538.15 1756.78 4548.68 1746.25 4552.9Z" stroke="#2E0909"/>
<path d="M1446.56 4645.43C1435.73 4648.81 1422.91 4645.67 1408.17 4636.13C1393.44 4626.58 1376.88 4610.68 1358.6 4588.71C1322.06 4544.76 1278.76 4476.6 1229.7 4386.69C1131.6 4206.88 1010.55 3940.14 874.596 3606.26C602.693 2938.5 271.22 2002.21 -55.3736 955.665C-381.967 -90.8796 -641.84 -1049.51 -797.983 -1753.4C-876.055 -2105.34 -928.192 -2393.58 -949.771 -2597.28C-960.561 -2699.13 -963.708 -2779.82 -958.646 -2836.75C-956.114 -2865.22 -951.533 -2887.72 -944.846 -2903.95C-938.156 -2920.18 -929.397 -2930.05 -918.562 -2933.43C-907.728 -2936.81 -894.91 -2933.67 -880.174 -2924.13C-865.445 -2914.58 -848.88 -2898.68 -830.606 -2876.71C-794.061 -2832.76 -750.76 -2764.6 -701.707 -2674.69C-603.606 -2494.88 -482.551 -2228.14 -346.599 -1894.26C-74.6956 -1226.5 256.778 -290.212 583.371 756.333C909.965 1802.88 1169.84 2761.51 1325.98 3465.4C1404.05 3817.34 1456.19 4105.58 1477.77 4309.28C1488.56 4411.13 1491.71 4491.82 1486.64 4548.75C1484.11 4577.22 1479.53 4599.72 1472.84 4615.94C1466.15 4632.18 1457.39 4642.05 1446.56 4645.43Z" stroke="#2E0909"/>
<path d="M1152.58 4711.69C1141.52 4714.24 1128.98 4710.14 1115.01 4699.5C1101.05 4688.87 1085.74 4671.76 1069.18 4648.46C1036.07 4601.87 998.059 4530.62 955.962 4437.25C871.771 4250.52 771.281 3975.38 661.025 3632.16C440.513 2945.71 180.955 1986.99 -65.3806 918.701C-311.717 -149.586 -498.187 -1125.16 -600.533 -1838.85C-651.707 -2195.7 -681.847 -2487.07 -687.926 -2691.81C-690.965 -2794.19 -687.988 -2874.88 -678.625 -2931.27C-673.944 -2959.46 -667.67 -2981.55 -659.772 -2997.22C-651.871 -3012.9 -642.39 -3022.08 -631.33 -3024.63C-620.27 -3027.18 -607.727 -3023.08 -593.757 -3012.44C-579.794 -3001.81 -564.482 -2984.7 -547.926 -2961.4C-514.817 -2914.81 -476.805 -2843.57 -434.708 -2750.2C-350.517 -2563.47 -250.027 -2288.33 -139.771 -1945.1C80.7406 -1258.65 340.299 -299.934 586.635 768.353C832.971 1836.64 1019.44 2812.21 1121.79 3525.91C1172.96 3882.76 1203.1 4174.12 1209.18 4378.87C1212.22 4481.24 1209.24 4561.93 1199.88 4618.32C1195.2 4646.52 1188.92 4668.6 1181.03 4684.28C1173.13 4699.96 1163.64 4709.13 1152.58 4711.69Z" stroke="#2E0909"/>
<path d="M837.038 4757.57C825.81 4759.22 813.635 4754.13 800.564 4742.41C787.498 4730.69 773.608 4712.41 758.973 4687.86C729.707 4638.76 697.531 4564.7 663.057 4468.25C594.111 4275.37 516.008 3993.06 433.631 3642.09C268.877 2940.18 87.0355 1963.73 -72.8399 879.128C-232.715 -205.473 -340.353 -1192.86 -385.137 -1912.46C-407.53 -2272.26 -414.208 -2565.11 -403.849 -2769.68C-398.669 -2871.97 -389.231 -2952.16 -375.377 -3007.62C-368.449 -3035.35 -360.424 -3056.86 -351.295 -3071.85C-342.162 -3086.84 -331.975 -3095.23 -320.746 -3096.89C-309.518 -3098.54 -297.343 -3093.45 -284.272 -3081.73C-271.206 -3070.01 -257.316 -3051.73 -242.681 -3027.18C-213.415 -2978.08 -181.239 -2904.02 -146.765 -2807.57C-77.8193 -2614.69 0.283483 -2332.38 82.6612 -1981.42C247.415 -1279.5 429.256 -303.051 589.132 781.55C749.007 1866.15 856.645 2853.54 901.429 3573.14C923.822 3932.94 930.5 4225.79 920.141 4430.36C914.961 4532.65 905.523 4612.84 891.669 4668.3C884.741 4696.03 876.716 4717.54 867.587 4732.53C858.454 4747.52 848.267 4755.91 837.038 4757.57Z" stroke="#2E0909"/>
<path d="M532.2 4777.68C520.878 4778.47 509.131 4772.46 496.999 4759.76C484.872 4747.08 472.427 4727.78 459.722 4702.18C434.315 4650.98 407.925 4574.66 380.963 4475.85C327.041 4278.25 270.861 3990.76 215.693 3634.51C105.357 2922.01 -0.921258 1934.48 -76.9889 840.798C-153.057 -252.881 -184.51 -1245.62 -173.872 -1966.53C-168.553 -2326.99 -152.711 -2619.48 -126.664 -2822.66C-113.64 -2924.24 -98.0679 -3003.48 -79.9937 -3057.7C-70.9558 -3084.82 -61.3019 -3105.65 -51.0482 -3119.89C-40.7901 -3134.14 -29.9885 -3141.73 -18.6658 -3142.51C-7.34312 -3143.3 4.40389 -3137.29 16.5359 -3124.59C28.6628 -3111.91 41.1076 -3092.61 53.8121 -3067.01C79.2191 -3015.81 105.61 -2939.49 132.572 -2840.69C186.494 -2643.08 242.674 -2355.6 297.842 -1999.34C408.177 -1286.84 514.456 -299.308 590.523 794.371C666.591 1888.05 698.045 2880.79 687.406 3601.7C682.087 3962.16 666.245 4254.65 640.199 4457.82C627.175 4559.41 611.602 4638.65 593.528 4692.87C584.49 4719.99 574.836 4740.82 564.583 4755.06C554.325 4769.31 543.523 4776.89 532.2 4777.68Z" stroke="#2E0909"/>
</svg>
