<svg width="413" height="212" viewBox="0 0 413 212" fill="none" xmlns="http://www.w3.org/2000/svg">
<g clip-path="url(#clip0_802_1183)">
<path d="M50.2989 53.87C58.4088 40.5922 73.0952 36.7455 73.0952 36.7455C73.0952 36.7455 45.0657 29.3909 45.0657 -0.000244141C45.0657 29.3909 17.0199 36.7455 17.0199 36.7455C17.0199 36.7455 31.7118 40.5922 39.827 53.87H1.50986V104.773L10.221 89.0093H27.6379V176.86L62.4771 212V104.434C53.5926 100.304 40.8293 89.8016 36.2569 81.7912C44.0634 84.168 54.5353 87.2937 62.6884 89.0148H88.6107V53.87H50.2989Z" fill="#252525"/>
<mask id="mask0_802_1183" style="mask-type:luminance" maskUnits="userSpaceOnUse" x="114" y="72" width="297" height="83">
<path d="M410.504 72.1698H114.14V154.865H410.504V72.1698Z" fill="white"/>
</mask>
<g mask="url(#mask0_802_1183)">
<path fill-rule="evenodd" clip-rule="evenodd" d="M244.066 103.065C248.577 96.894 255.592 93.5121 264.011 93.5121H264.021C280.244 93.5121 291.575 105.781 291.575 122.836C291.575 139.891 279.903 152.263 263.803 152.263C255.197 152.263 248.348 149.048 243.9 142.94L243.609 150.9H231.314V72.1698H244.066V103.065ZM263.117 141.483C272.99 141.483 279.882 133.97 279.882 123.221C279.882 112.222 273.75 104.844 263.751 104.844C253.753 104.844 246.769 112.128 246.769 123.221C246.769 134.313 253.244 141.483 263.117 141.483ZM155.328 139.662C152.169 142.076 149.653 143.013 146.338 143.013C141.453 143.013 138.647 140.037 138.647 134.834V105.468H159.143V94.1677H138.647V79.4955H125.895V94.1574H117.029L114.14 105.458H125.895V134.938C125.895 147.789 132.723 154.865 145.132 154.865C150.797 154.865 155.848 153.117 160.556 149.516L160.899 149.256L155.827 139.277L155.328 139.652V139.662ZM192.568 93.0648C176.26 93.0648 164.433 105.448 164.433 122.503C164.433 140.453 175.689 152.045 193.098 152.045C203.044 152.045 210.475 149.007 216.462 142.482L216.773 142.149L210.008 133.981L209.602 134.376C204.936 138.944 200.113 140.983 193.94 140.983C184.253 140.983 178.297 135.666 177.123 125.978H219.018V125.458C219.018 124.938 219.039 124.449 219.07 123.96C219.102 123.45 219.122 122.94 219.122 122.399C219.122 104.584 208.698 93.0648 192.568 93.0648ZM177.383 117.612C179.004 109.506 184.866 104.303 192.464 104.303C200.061 104.303 205.195 109.142 206.318 117.612H177.383ZM326.183 93.0648C309.877 93.0648 298.048 105.448 298.048 122.503C298.048 140.453 309.305 152.045 326.715 152.045C336.661 152.045 344.093 149.007 350.078 142.482L350.391 142.149L343.624 133.981L343.219 134.376C338.551 138.944 333.73 140.983 327.557 140.983C317.87 140.983 311.913 135.666 310.74 125.978H352.636V125.458C352.636 124.938 352.654 124.449 352.686 123.96C352.718 123.45 352.739 122.94 352.739 122.399C352.739 104.584 342.313 93.0648 326.183 93.0648ZM326.079 104.293C333.791 104.293 338.811 109.131 339.933 117.602H311C312.62 109.496 318.481 104.293 326.079 104.293ZM408.269 94.1574L388.493 121.14L410.504 150.9H395.352L381.133 130.588L367.226 150.9H352.821L374.085 121.889L353.777 94.1574H368.931L381.445 112.638L393.854 94.1574H408.269Z" fill="#252525"/>
</g>
</g>
<defs>
<clipPath id="clip0_802_1183">
<rect width="413" height="212" fill="white" transform="translate(0 -0.000244141)"/>
</clipPath>
</defs>
</svg>
